<?xml version="1.0" encoding="UTF-8"?>
<svg version="1.1" xmlns="http://www.w3.org/2000/svg" width="1024" height="1024">
<path d="M0 0 C337.92 0 675.84 0 1024 0 C1024 337.92 1024 675.84 1024 1024 C686.08 1024 348.16 1024 0 1024 C0 686.08 0 348.16 0 0 Z " fill="#FDFEFE" transform="translate(0,0)"/>
<path d="M0 0 C1.64150554 -0.00525911 1.64150554 -0.00525911 3.31617281 -0.01062447 C6.99082517 -0.01994381 10.66531924 -0.01501367 14.33997822 -0.01015663 C16.99811918 -0.01389262 19.65624835 -0.01841417 22.31438524 -0.02388728 C28.09778311 -0.03418548 33.88114751 -0.03703138 39.66455364 -0.03497505 C48.26493579 -0.0319246 56.86528091 -0.04025004 65.46565586 -0.0507243 C81.72032403 -0.07006748 97.97497959 -0.07569265 114.22965791 -0.07683842 C126.78275344 -0.07775749 139.33584403 -0.08187407 151.88893795 -0.08823967 C155.50228398 -0.09003476 159.11563003 -0.09181439 162.72897607 -0.09358943 C163.62726556 -0.09403152 164.52555505 -0.09447362 165.45106544 -0.09492911 C190.71900664 -0.10723783 215.98694612 -0.11513021 241.25489044 -0.11424255 C242.20757934 -0.1142114 243.16026824 -0.11418024 244.1418265 -0.11414814 C248.97045066 -0.11398192 253.79907482 -0.11378384 258.62769898 -0.11357872 C259.58668078 -0.11353883 260.54566258 -0.11349894 261.53370444 -0.11345784 C263.47299968 -0.11337697 265.41229493 -0.11329337 267.35159018 -0.11320706 C297.52232478 -0.11198161 327.69301442 -0.12699344 357.86373615 -0.15435219 C391.7607232 -0.18507724 425.6576807 -0.20228442 459.55468255 -0.20042574 C463.16960037 -0.20027648 466.78451818 -0.20017907 470.399436 -0.20011711 C471.73456133 -0.20008215 471.73456133 -0.20008215 473.0966589 -0.20004648 C487.41681824 -0.19998495 501.73693854 -0.21275355 516.05708627 -0.22998164 C530.45101819 -0.24694026 544.84489301 -0.24891017 559.2388294 -0.235763 C567.78785116 -0.22837533 576.33669943 -0.23202627 584.8857028 -0.25164768 C590.60055101 -0.26365491 596.31527368 -0.26104839 602.03011616 -0.24670668 C605.28348603 -0.23894982 608.53645457 -0.2395954 611.78981318 -0.25362138 C630.44196604 -0.32870393 647.72950969 0.46840624 662.22872639 13.88226891 C673.73134121 26.28241836 676.44481182 39.79500128 676.35294819 56.18649864 C676.35569337 57.67450903 676.35974936 59.16251747 676.36499184 60.65052116 C676.37552029 64.71293656 676.36748791 68.77513006 676.35624135 72.83753562 C676.34736421 77.22883957 676.35585291 81.62011558 676.36210346 86.0114193 C676.37157261 94.60295146 676.36500839 103.19439939 676.35284052 111.78592528 C676.33919367 121.79594956 676.34086071 131.80595397 676.34297385 141.81598519 C676.34616091 159.67777801 676.33451169 177.5395309 676.31490803 195.40131187 C676.29589939 212.72554299 676.28882233 230.04972733 676.29440022 247.37396812 C676.30046019 266.25131359 676.30027735 285.12863851 676.28891438 304.00598228 C676.28770712 306.01937985 676.28650114 308.03277743 676.28529644 310.046175 C676.28439113 311.53202764 676.28439113 311.53202764 676.28346753 313.0478975 C676.27959123 320.02239538 676.27998087 326.99688561 676.28188229 333.97138405 C676.28400598 342.47144902 676.27876679 350.97147307 676.26426873 359.47152652 C676.25703344 363.80680655 676.25294038 368.14202703 676.25751209 372.47731209 C676.26159786 376.44839883 676.2563965 380.41936276 676.24388602 384.39043091 C676.24096589 385.82430103 676.2413796 387.25818279 676.24552909 388.69204988 C676.28882612 405.15214675 672.85044269 416.86249841 661.33419514 429.03461266 C650.39527761 439.35674213 638.81270021 442.41280093 624.1511097 442.39148998 C623.05341604 442.39384221 621.95572239 442.39619444 620.82476529 442.39861795 C617.12671156 442.40530346 613.428693 442.40484986 609.73063374 442.40443993 C607.06042288 442.40773881 604.39021509 442.41142672 601.72000569 442.41558141 C595.13830663 442.42490211 588.5566143 442.42882855 581.97490946 442.43110037 C574.09203683 442.43406377 566.20917312 442.44276191 558.32630517 442.45151465 C539.27432431 442.47235309 520.22234191 442.48282741 501.17035232 442.49164426 C492.15814834 442.49585112 483.14594503 442.50107302 474.13374161 442.50632879 C443.28574476 442.52421733 412.43774773 442.53921402 381.58974648 442.54664898 C379.65334831 442.54712374 377.71695015 442.54759962 375.78055198 442.54807664 C374.82027333 442.54831302 373.85999469 442.54854939 372.87061669 442.54879293 C368.00536744 442.54999413 363.1401182 442.55120958 358.27486897 442.55243492 C356.82658537 442.55279515 356.82658537 442.55279515 355.34904352 442.55316265 C324.03683874 442.56105749 292.72467183 442.584494 261.41248359 442.61699087 C228.30933195 442.65128377 195.20620247 442.67099955 162.10303277 442.67429322 C158.46958362 442.67471076 154.83613449 442.67519033 151.20268536 442.6757164 C149.86069407 442.67590119 149.86069407 442.67590119 148.49159185 442.67608971 C134.09095896 442.67842223 119.69037003 442.69408493 105.28975281 442.71455825 C90.81720066 442.73480756 76.34470134 442.74029775 61.87213764 442.73078761 C53.27382323 442.72556942 44.67568467 442.73146517 36.07739554 442.75332228 C30.33217794 442.76682337 24.58708147 442.76575953 18.84186267 442.75292033 C15.56946678 442.74601906 12.2974743 442.74758461 9.02509526 442.76248042 C5.49494477 442.7775554 1.96567743 442.76795589 -1.56445122 442.75225353 C-2.57345483 442.76247574 -3.58245844 442.77269795 -4.62203792 442.78322992 C-15.8201583 442.67448303 -24.82555369 438.35424897 -34.02127361 432.25726891 C-34.90814861 431.67976891 -35.79502361 431.10226891 -36.70877361 430.50726891 C-45.39489231 422.05591018 -51.63359884 410.37935257 -52.15122545 398.19946998 C-52.15355609 397.10608741 -52.15588673 396.01270484 -52.158288 394.88618946 C-52.16336254 393.61778766 -52.16843709 392.34938586 -52.1736654 391.04254764 C-52.17426699 389.64247735 -52.1747661 388.24240702 -52.17517376 386.84233665 C-52.17919149 385.34911964 -52.18363023 383.85590371 -52.18845332 382.36268908 C-52.20038978 378.26257263 -52.20606044 374.16246792 -52.21063447 370.06233752 C-52.21660158 365.63883232 -52.22820853 361.21534108 -52.23892498 356.79184532 C-52.26342194 346.11121553 -52.27807131 335.43058113 -52.29098505 324.7499319 C-52.29469868 321.73221508 -52.29867176 318.71449872 -52.30273771 315.69678235 C-52.32797379 296.94788302 -52.35002179 278.19898294 -52.36246586 259.45007038 C-52.36539543 255.10951739 -52.36835712 250.76896442 -52.37137127 246.42841148 C-52.37211732 245.34962137 -52.37286337 244.27083125 -52.37363203 243.15935052 C-52.38628391 225.68621026 -52.41950667 208.21317178 -52.4611731 190.7400791 C-52.50362104 172.79183874 -52.52716411 154.84365047 -52.53238642 136.89536005 C-52.53579706 126.82166651 -52.5475116 116.74813213 -52.58048916 106.67448807 C-52.60852997 98.09496667 -52.61947124 89.51563708 -52.6082937 80.93607341 C-52.60311758 76.56171728 -52.60592549 72.18776257 -52.63075924 67.81346512 C-52.65334394 63.80169922 -52.65244122 59.79062097 -52.63355537 55.77884228 C-52.63076821 54.33464502 -52.63628185 52.89040019 -52.65136831 51.44627904 C-52.80219539 36.056311 -48.33080686 24.89350175 -37.73611736 13.88226891 C-26.87557033 3.41758967 -14.760302 -0.06006931 0 0 Z " fill="#F8F8F8" transform="translate(200.02127361297607,298.74273109436035)"/>
<path d="M0 0 C1.64150554 -0.00525911 1.64150554 -0.00525911 3.31617281 -0.01062447 C6.99082517 -0.01994381 10.66531924 -0.01501367 14.33997822 -0.01015663 C16.99811918 -0.01389262 19.65624835 -0.01841417 22.31438524 -0.02388728 C28.09778311 -0.03418548 33.88114751 -0.03703138 39.66455364 -0.03497505 C48.26493579 -0.0319246 56.86528091 -0.04025004 65.46565586 -0.0507243 C81.72032403 -0.07006748 97.97497959 -0.07569265 114.22965791 -0.07683842 C126.78275344 -0.07775749 139.33584403 -0.08187407 151.88893795 -0.08823967 C155.50228398 -0.09003476 159.11563003 -0.09181439 162.72897607 -0.09358943 C163.62726556 -0.09403152 164.52555505 -0.09447362 165.45106544 -0.09492911 C190.71900664 -0.10723783 215.98694612 -0.11513021 241.25489044 -0.11424255 C242.20757934 -0.1142114 243.16026824 -0.11418024 244.1418265 -0.11414814 C248.97045066 -0.11398192 253.79907482 -0.11378384 258.62769898 -0.11357872 C259.58668078 -0.11353883 260.54566258 -0.11349894 261.53370444 -0.11345784 C263.47299968 -0.11337697 265.41229493 -0.11329337 267.35159018 -0.11320706 C297.52232478 -0.11198161 327.69301442 -0.12699344 357.86373615 -0.15435219 C391.7607232 -0.18507724 425.6576807 -0.20228442 459.55468255 -0.20042574 C463.16960037 -0.20027648 466.78451818 -0.20017907 470.399436 -0.20011711 C471.73456133 -0.20008215 471.73456133 -0.20008215 473.0966589 -0.20004648 C487.41681824 -0.19998495 501.73693854 -0.21275355 516.05708627 -0.22998164 C530.45101819 -0.24694026 544.84489301 -0.24891017 559.2388294 -0.235763 C567.78785116 -0.22837533 576.33669943 -0.23202627 584.8857028 -0.25164768 C590.60055101 -0.26365491 596.31527368 -0.26104839 602.03011616 -0.24670668 C605.28348603 -0.23894982 608.53645457 -0.2395954 611.78981318 -0.25362138 C630.44196604 -0.32870393 647.72950969 0.46840624 662.22872639 13.88226891 C673.73134121 26.28241836 676.44481182 39.79500128 676.35294819 56.18649864 C676.35569337 57.67450903 676.35974936 59.16251747 676.36499184 60.65052116 C676.37552029 64.71293656 676.36748791 68.77513006 676.35624135 72.83753562 C676.34736421 77.22883957 676.35585291 81.62011558 676.36210346 86.0114193 C676.37157261 94.60295146 676.36500839 103.19439939 676.35284052 111.78592528 C676.33919367 121.79594956 676.34086071 131.80595397 676.34297385 141.81598519 C676.34616091 159.67777801 676.33451169 177.5395309 676.31490803 195.40131187 C676.29589939 212.72554299 676.28882233 230.04972733 676.29440022 247.37396812 C676.30046019 266.25131359 676.30027735 285.12863851 676.28891438 304.00598228 C676.28770712 306.01937985 676.28650114 308.03277743 676.28529644 310.046175 C676.28439113 311.53202764 676.28439113 311.53202764 676.28346753 313.0478975 C676.27959123 320.02239538 676.27998087 326.99688561 676.28188229 333.97138405 C676.28400598 342.47144902 676.27876679 350.97147307 676.26426873 359.47152652 C676.25703344 363.80680655 676.25294038 368.14202703 676.25751209 372.47731209 C676.26159786 376.44839883 676.2563965 380.41936276 676.24388602 384.39043091 C676.24096589 385.82430103 676.2413796 387.25818279 676.24552909 388.69204988 C676.28882612 405.15214675 672.85044269 416.86249841 661.33419514 429.03461266 C650.39527761 439.35674213 638.81270021 442.41280093 624.1511097 442.39148998 C623.05341604 442.39384221 621.95572239 442.39619444 620.82476529 442.39861795 C617.12671156 442.40530346 613.428693 442.40484986 609.73063374 442.40443993 C607.06042288 442.40773881 604.39021509 442.41142672 601.72000569 442.41558141 C595.13830663 442.42490211 588.5566143 442.42882855 581.97490946 442.43110037 C574.09203683 442.43406377 566.20917312 442.44276191 558.32630517 442.45151465 C539.27432431 442.47235309 520.22234191 442.48282741 501.17035232 442.49164426 C492.15814834 442.49585112 483.14594503 442.50107302 474.13374161 442.50632879 C443.28574476 442.52421733 412.43774773 442.53921402 381.58974648 442.54664898 C379.65334831 442.54712374 377.71695015 442.54759962 375.78055198 442.54807664 C374.82027333 442.54831302 373.85999469 442.54854939 372.87061669 442.54879293 C368.00536744 442.54999413 363.1401182 442.55120958 358.27486897 442.55243492 C356.82658537 442.55279515 356.82658537 442.55279515 355.34904352 442.55316265 C324.03683874 442.56105749 292.72467183 442.584494 261.41248359 442.61699087 C228.30933195 442.65128377 195.20620247 442.67099955 162.10303277 442.67429322 C158.46958362 442.67471076 154.83613449 442.67519033 151.20268536 442.6757164 C149.86069407 442.67590119 149.86069407 442.67590119 148.49159185 442.67608971 C134.09095896 442.67842223 119.69037003 442.69408493 105.28975281 442.71455825 C90.81720066 442.73480756 76.34470134 442.74029775 61.87213764 442.73078761 C53.27382323 442.72556942 44.67568467 442.73146517 36.07739554 442.75332228 C30.33217794 442.76682337 24.58708147 442.76575953 18.84186267 442.75292033 C15.56946678 442.74601906 12.2974743 442.74758461 9.02509526 442.76248042 C5.49494477 442.7775554 1.96567743 442.76795589 -1.56445122 442.75225353 C-2.57345483 442.76247574 -3.58245844 442.77269795 -4.62203792 442.78322992 C-15.8201583 442.67448303 -24.82555369 438.35424897 -34.02127361 432.25726891 C-34.90814861 431.67976891 -35.79502361 431.10226891 -36.70877361 430.50726891 C-45.39489231 422.05591018 -51.63359884 410.37935257 -52.15122545 398.19946998 C-52.15355609 397.10608741 -52.15588673 396.01270484 -52.158288 394.88618946 C-52.16336254 393.61778766 -52.16843709 392.34938586 -52.1736654 391.04254764 C-52.17426699 389.64247735 -52.1747661 388.24240702 -52.17517376 386.84233665 C-52.17919149 385.34911964 -52.18363023 383.85590371 -52.18845332 382.36268908 C-52.20038978 378.26257263 -52.20606044 374.16246792 -52.21063447 370.06233752 C-52.21660158 365.63883232 -52.22820853 361.21534108 -52.23892498 356.79184532 C-52.26342194 346.11121553 -52.27807131 335.43058113 -52.29098505 324.7499319 C-52.29469868 321.73221508 -52.29867176 318.71449872 -52.30273771 315.69678235 C-52.32797379 296.94788302 -52.35002179 278.19898294 -52.36246586 259.45007038 C-52.36539543 255.10951739 -52.36835712 250.76896442 -52.37137127 246.42841148 C-52.37211732 245.34962137 -52.37286337 244.27083125 -52.37363203 243.15935052 C-52.38628391 225.68621026 -52.41950667 208.21317178 -52.4611731 190.7400791 C-52.50362104 172.79183874 -52.52716411 154.84365047 -52.53238642 136.89536005 C-52.53579706 126.82166651 -52.5475116 116.74813213 -52.58048916 106.67448807 C-52.60852997 98.09496667 -52.61947124 89.51563708 -52.6082937 80.93607341 C-52.60311758 76.56171728 -52.60592549 72.18776257 -52.63075924 67.81346512 C-52.65334394 63.80169922 -52.65244122 59.79062097 -52.63355537 55.77884228 C-52.63076821 54.33464502 -52.63628185 52.89040019 -52.65136831 51.44627904 C-52.80219539 36.056311 -48.33080686 24.89350175 -37.73611736 13.88226891 C-26.87557033 3.41758967 -14.760302 -0.06006931 0 0 Z M-33.33377361 23.56976891 C-39.30857483 31.08919203 -42.1396806 38.8887381 -42.15549469 48.43000698 C-42.15995253 49.67961745 -42.16441038 50.92922793 -42.16900331 52.21670538 C-42.16891402 53.60075574 -42.16872418 54.9848061 -42.16844463 56.36885643 C-42.17174517 57.84129891 -42.17547114 59.31374049 -42.17958611 60.78618091 C-42.18959259 64.8334816 -42.19332073 68.88076746 -42.19597542 72.92807877 C-42.19988248 77.29295742 -42.20946053 81.65782437 -42.21818829 86.02269554 C-42.23794117 96.56432537 -42.24801734 107.10595614 -42.25691608 117.64759985 C-42.26130083 122.6135843 -42.26666715 127.57956769 -42.27190495 132.5455513 C-42.28891592 149.05649564 -42.30340977 165.56743932 -42.31065369 182.07839108 C-42.31256353 186.36205674 -42.31448387 190.6457224 -42.31643963 194.92938805 C-42.31692337 195.9940529 -42.31740711 197.05871776 -42.31790551 198.15564518 C-42.32620464 215.39994634 -42.35154019 232.6441781 -42.38402031 249.88844896 C-42.41710489 267.59822093 -42.43510371 285.30795766 -42.43829793 303.01776069 C-42.4404617 312.95894896 -42.44919106 322.90003603 -42.4747591 332.84119415 C-42.49648519 341.308031 -42.50450711 349.77474206 -42.49479232 358.24160362 C-42.49025318 362.55906646 -42.49211127 366.87626986 -42.51155376 371.19369698 C-42.52922601 375.15232767 -42.52815514 379.11051043 -42.51265647 383.06914615 C-42.51028654 384.49518201 -42.51457189 385.92124923 -42.52648512 387.3472373 C-42.64064205 401.92376525 -39.52944299 412.4740086 -29.32986736 423.00336266 C-21.83733778 429.97437046 -14.04933792 431.85628107 -4.03041363 431.73828697 C-2.95691664 431.74170467 -1.88341965 431.74512237 -0.77739245 431.74864364 C2.80182742 431.75520611 6.38028907 431.73327246 9.95943928 431.71137047 C12.53216249 431.71024164 15.10488698 431.71087653 17.67760944 431.71314049 C23.20729631 431.71523228 28.73679358 431.70274134 34.26643276 431.68018913 C42.26121189 431.64760436 50.25589986 431.63725552 58.2507382 431.63223717 C71.22351467 431.62349464 84.19619022 431.59690744 97.16891193 431.55902672 C109.76656307 431.52227959 122.36418673 431.49398108 134.96188068 431.47699547 C135.73912202 431.47594457 136.51636335 431.47489368 137.31715745 431.47381094 C141.21656417 431.46859058 145.11597108 431.4635358 149.01537812 431.45856333 C181.33656754 431.41713376 213.65763292 431.34671384 245.97872639 431.25726891 C246.10275839 426.24026986 246.19326655 421.22417209 246.25338459 416.20599937 C246.27845684 414.50076301 246.31252403 412.79563336 246.35592365 411.090765 C246.41690204 408.63297716 246.44500751 406.1766153 246.46700764 403.71820641 C246.49281406 402.96171806 246.51862049 402.20522972 246.54520893 401.42581749 C246.54824421 395.63668981 244.91123487 393.43778723 240.97872639 389.25726891 C240.2473372 385.27526109 240.56646521 383.86191863 242.85372639 380.50726891 C244.20927662 379.07198043 245.58273759 377.6532577 246.97872639 376.25726891 C246.9612442 373.33774323 246.83928005 370.53429006 246.60372639 367.63226891 C246.54700764 366.83047203 246.49028889 366.02867516 246.43185139 365.20258141 C246.29024657 363.22011393 246.1357038 361.2385784 245.97872639 359.25726891 C241.02872639 359.25726891 236.07872639 359.25726891 230.97872639 359.25726891 C230.97872639 346.38726891 230.97872639 333.51726891 230.97872639 320.25726891 C235.92872639 320.25726891 240.87872639 320.25726891 245.97872639 320.25726891 C246.99044351 310.92935109 247.37098691 301.69302309 247.49361897 292.31537437 C247.52548441 290.43580357 247.5734676 288.55644019 247.63717365 286.67767906 C247.72843828 283.93783381 247.76719172 281.20152861 247.79513264 278.46039391 C247.85236248 277.20866386 247.85236248 277.20866386 247.91074848 275.93164635 C247.8986685 272.30264277 247.84645502 270.13994506 245.23016071 267.47858238 C243.12496107 265.88910111 243.12496107 265.88910111 240.94416523 264.59412193 C237.47289914 262.23303469 236.02254729 259.24988387 234.97872639 255.25726891 C233.38949507 242.47720037 237.31595888 232.30649442 244.97872639 222.25726891 C245.45696857 221.61402672 245.93521076 220.97078453 246.42794514 220.30805016 C258.31359542 205.54828797 276.66212684 196.21906481 292.97872639 187.25726891 C292.60545296 177.65658039 290.34400124 168.39046774 283.60372639 161.19476891 C277.23979095 155.61952632 271.54802189 154.57002751 263.19747639 154.78070641 C258.0262524 155.54634879 254.83447418 157.8587244 250.97872639 161.25726891 C250.09314045 161.96496422 250.09314045 161.96496422 249.18966389 162.68695641 C234.33944242 175.77413788 229.7310915 196.7679615 225.97872639 215.25726891 C223.56085519 215.3655318 221.14785083 215.44466679 218.72872639 215.50726891 C217.70585529 215.55754234 217.70585529 215.55754234 216.66232014 215.60883141 C213.45292094 215.67114984 211.42609994 215.57427408 208.77364826 213.69476891 C206.28896482 210.3205742 206.5220627 208.02708123 206.58810139 203.86664391 C206.59376118 203.16203026 206.59942097 202.45741661 206.60525227 201.73145103 C206.6275756 199.48935463 206.67775885 197.24887903 206.72872639 195.00726891 C206.74879687 193.48385455 206.76704669 191.96041505 206.78341389 190.43695641 C206.82742521 186.7098706 206.89642267 182.98372804 206.97872639 179.25726891 C202.60326023 182.79827891 198.89397403 186.26551826 195.60372639 190.88226891 C194.93599201 191.80265953 194.26825764 192.72305016 193.58028889 193.67133141 C192.15560764 195.9716704 191.4125403 197.6172014 190.97872639 200.25726891 C188.66872639 199.59726891 186.35872639 198.93726891 183.97872639 198.25726891 C188.52486939 190.03855548 193.80158369 181.46470806 201.16720295 175.47870445 C208.32167581 169.36898183 209.69859355 163.32799639 210.82043171 154.41974449 C211.30593127 150.60666658 211.92462631 146.814635 212.52950764 143.01898766 C212.64708927 142.26400993 212.76467091 141.50903221 212.88581562 140.73117638 C218.08694959 108.07434059 233.40988956 67.86895591 260.70138264 47.19476891 C268.8598048 41.68697335 277.94885071 37.68218013 287.97872639 39.25726891 C293.9928793 40.9833525 297.02482462 43.97936104 300.06857014 49.35492516 C303.589156 56.71340291 302.92439523 66.99134167 300.86153889 74.79242516 C297.47486731 84.24813207 292.88552275 92.93690949 287.16622639 101.18305016 C286.77435139 101.86754234 286.38247639 102.55203453 285.97872639 103.25726891 C286.30872639 103.91726891 286.63872639 104.57726891 286.97872639 105.25726891 C293.24872639 104.92726891 299.51872639 104.59726891 305.97872639 104.25726891 C305.97872639 118.11726891 305.97872639 131.97726891 305.97872639 146.25726891 C306.30872639 146.25726891 306.63872639 146.25726891 306.97872639 146.25726891 C306.97872639 123.81726891 306.97872639 101.37726891 306.97872639 78.25726891 C317.20872639 78.25726891 327.43872639 78.25726891 337.97872639 78.25726891 C337.97872639 103.33726891 337.97872639 128.41726891 337.97872639 154.25726891 C342.3908031 153.15424973 342.64076758 152.88480932 344.98263264 149.33148766 C345.54869221 148.48626549 346.11475178 147.64104332 346.69796467 146.77020836 C347.30624104 145.83781334 347.9145174 144.90541832 348.54122639 143.94476891 C349.88337384 141.93154773 351.22583713 139.91853709 352.56857014 137.90570641 C353.28126057 136.82901695 353.993951 135.7523275 354.72823811 134.64301109 C358.23562646 129.35318578 361.81406867 124.11135427 365.38396931 118.86362267 C367.00291645 116.48269415 368.61900447 114.09983143 370.23515034 111.71700096 C374.63972067 105.22363035 379.05247199 98.73588139 383.47872639 92.25726891 C384.0003133 91.49261314 384.52190022 90.72795738 385.05929279 89.94013023 C386.93044249 87.20520342 388.78985421 84.50056188 390.82247639 81.88226891 C392.17197806 80.3180681 392.17197806 80.3180681 391.97872639 78.25726891 C403.85872639 78.25726891 415.73872639 78.25726891 427.97872639 78.25726891 C414.43593793 98.12983893 414.43593793 98.12983893 407.46603107 107.85663414 C406.5310992 109.16910851 405.61611706 110.49592747 404.71700764 111.83319664 C402.97872639 114.25726891 402.97872639 114.25726891 400.41232014 117.1989193 C390.80548773 128.8206184 391.81015002 140.72845811 392.35372639 155.19476891 C392.40398781 157.53516771 392.44959728 159.87567126 392.49044514 162.21625328 C392.59962181 167.89922019 392.77159407 173.57706338 392.97872639 179.25726891 C388.68872639 179.25726891 384.39872639 179.25726891 379.97872639 179.25726891 C380.85874563 182.77734587 381.45385816 184.26121584 383.42794514 187.10101891 C383.93921955 187.84247154 384.45049397 188.58392418 384.97726154 189.34784508 C385.81329914 190.54050987 385.81329914 190.54050987 386.66622639 191.75726891 C387.24420979 192.59169518 387.82219318 193.42612144 388.41769123 194.28583336 C390.26454915 196.94780304 392.12047318 199.60324381 393.97872639 202.25726891 C394.57540119 203.11111168 395.172076 203.96495445 395.78683186 204.84467125 C398.14822551 208.22336027 400.51148995 211.60071797 402.87911701 214.97504234 C406.49975349 220.13555933 410.09772084 225.31057238 413.66622639 230.50726891 C414.31990192 231.45702599 414.31990192 231.45702599 414.98678303 232.42597008 C417.35535646 235.87240967 419.70321381 239.33163124 422.03341389 242.80414391 C422.53655109 243.54889977 423.0396883 244.29365562 423.55807209 245.06097984 C424.52843442 246.49791475 425.49335095 247.93854606 426.45211506 249.38324547 C427.57677387 251.04354581 428.77142819 252.65605508 429.97872639 254.25726891 C430.63872639 254.25726891 431.29872639 254.25726891 431.97872639 254.25726891 C431.97872639 254.91726891 431.97872639 255.57726891 431.97872639 256.25726891 C430.83283039 256.25203209 429.68693439 256.24679527 428.50631428 256.24139977 C424.27031956 256.22335173 420.03432827 256.21183763 415.79830647 256.20233727 C413.96203764 256.19729659 412.12577285 256.19046414 410.2895174 256.18182945 C407.65596237 256.16975218 405.02246022 256.1640381 402.38888264 256.15961266 C401.56284031 256.15445137 400.73679798 256.14929008 399.88572407 256.1439724 C397.91636271 256.14377686 395.94711025 256.19522739 393.97872639 256.25726891 C392.68435044 257.32713744 392.68435044 257.32713744 392.85847187 259.84517479 C392.86069248 260.9976722 392.86291309 262.1501696 392.865201 263.33759117 C392.86531429 265.28950119 392.86531429 265.28950119 392.86542988 267.28084373 C392.8705373 268.71178792 392.87575331 270.14273173 392.88107014 271.57367516 C392.88293436 273.0295615 392.88435824 274.48544848 392.88535786 275.94133568 C392.88918273 279.7800627 392.89901275 283.6187521 392.91006184 287.45746422 C392.92027661 291.37184706 392.92485562 295.28623596 392.92989826 299.20062828 C392.94063505 306.88619234 392.9577111 314.57172536 392.97872639 322.25726891 C395.94872639 322.25726891 398.91872639 322.25726891 401.97872639 322.25726891 C400.98872639 323.24726891 399.99872639 324.23726891 398.97872639 325.25726891 C398.97872639 325.91726891 398.97872639 326.57726891 398.97872639 327.25726891 C402.41578343 327.40232066 405.85205672 327.49124905 409.29122639 327.56976891 C410.26769123 327.61166344 411.24415607 327.65355797 412.25021076 327.69672203 C414.91468937 327.74250345 417.35765967 327.74506481 419.97872639 327.25726891 C421.95965378 324.90196258 421.95965378 324.90196258 422.97872639 322.25726891 C425.70151374 321.31496583 428.06112526 321.40075749 430.97872639 321.25726891 C431.63872639 323.23726891 432.29872639 325.21726891 432.97872639 327.25726891 C439.24872639 327.25726891 445.51872639 327.25726891 451.97872639 327.25726891 C452.30872639 328.57726891 452.63872639 329.89726891 452.97872639 331.25726891 C452.97872639 327.95726891 452.97872639 324.65726891 452.97872639 321.25726891 C456.68875571 321.31739904 460.39483792 321.40449248 464.10372639 321.50726891 C465.15044514 321.52144859 466.19716389 321.53562828 467.27560139 321.55023766 C473.43108599 321.74503147 477.32770011 322.07896989 481.97872639 326.25726891 C484.13037342 329.48473945 484.25117718 330.46232529 484.22872639 334.19476891 C484.23388264 335.04941734 484.23903889 335.90406578 484.24435139 336.78461266 C483.95474291 339.48052682 483.51233504 341.02395131 481.97872639 343.25726891 C480.02560139 344.48773766 480.02560139 344.48773766 477.72872639 345.44476891 C476.98107014 345.76832359 476.23341389 346.09187828 475.46310139 346.42523766 C472.97872639 347.25726891 472.97872639 347.25726891 466.97872639 348.25726891 C466.97872639 360.46726891 466.97872639 372.67726891 466.97872639 385.25726891 C499.31872639 385.25726891 531.65872639 385.25726891 564.97872639 385.25726891 C564.97872639 386.57726891 564.97872639 387.89726891 564.97872639 389.25726891 C532.63872639 389.25726891 500.29872639 389.25726891 466.97872639 389.25726891 C466.97872639 403.11726891 466.97872639 416.97726891 466.97872639 431.25726891 C489.18023485 431.41553557 511.38128366 431.54437654 533.58321381 431.61995411 C543.89291038 431.65598525 554.2022305 431.70507285 564.51168537 431.78534508 C573.50176215 431.85531065 582.49156617 431.90032262 591.48190767 431.91588837 C596.2384611 431.92498154 600.99423452 431.94621673 605.75053692 431.9973793 C610.23640501 432.04523748 614.7211791 432.05948119 619.20727825 432.04902267 C620.84507431 432.05093321 622.48291065 432.06465266 624.12048435 432.09170723 C636.12122296 432.28008527 645.23332757 430.33923465 654.46963501 422.01134968 C662.17471531 414.0857914 666.09474091 405.07199265 666.11294746 394.08173752 C666.11740531 392.83151035 666.12186315 391.58128318 666.12645608 390.29317033 C666.12636679 388.90843096 666.12617696 387.5236916 666.12589741 386.13895226 C666.12919794 384.66579708 666.13292391 383.19264281 666.13703889 381.71948969 C666.14704533 377.67025839 666.15077349 373.62104191 666.1534282 369.57179999 C666.15733523 365.20489546 666.16691324 360.83800263 666.17564106 356.47110558 C666.19539336 345.92503165 666.20546975 335.37895679 666.21436885 324.83286899 C666.21875344 319.86526136 666.22411978 314.89765478 666.22935772 309.93004799 C666.24636815 293.41481243 666.26086235 276.89957754 666.26810646 260.38433456 C666.27001632 256.09962908 666.27193666 251.81492359 666.2738924 247.53021812 C666.27437614 246.46529096 666.27485988 245.40036379 666.27535828 244.30316611 C666.28365876 227.05172289 666.30899682 209.800349 666.34147308 192.54893605 C666.37455074 174.83351885 666.39255583 157.11813687 666.3957507 139.40268862 C666.39791505 129.45761987 666.40665287 119.51265225 666.43221188 109.5676136 C666.45392844 101.09818633 666.46196454 92.62888477 666.45224509 84.15943281 C666.44770329 79.84006867 666.44957967 75.52096386 666.46900654 71.20163536 C666.48665949 67.2424401 666.48562346 63.28369293 666.47010925 59.32449277 C666.4677364 57.89712882 666.47203992 56.46973366 666.4839379 55.04241733 C666.58104931 42.61656318 664.19012946 31.9102294 655.97872639 22.25726891 C645.62188578 12.38895851 635.13052185 10.1015421 621.24202061 10.12584114 C619.6102261 10.12276219 619.6102261 10.12276219 617.94546604 10.11962104 C614.28086202 10.11394276 610.61629547 10.11540932 606.95168781 10.11682701 C604.30551314 10.11424386 601.65934152 10.11126968 599.0131681 10.10782361 C592.49095287 10.10024665 585.96874584 10.0980507 579.44652667 10.09749455 C571.63489939 10.09658063 563.82327968 10.08991227 556.01165566 10.08314773 C537.13232227 10.06708917 518.2529897 10.06118484 499.37365071 10.05639898 C490.44349705 10.05406313 481.51334403 10.05046052 472.58319088 10.0467036 C442.01707563 10.03386892 411.45096075 10.02314911 380.88484287 10.019701 C378.96617613 10.01947937 377.04750938 10.01925759 375.12884264 10.01903565 C373.20553616 10.01881501 371.28222968 10.01859453 369.3589232 10.0183742 C365.50042009 10.01793165 361.64191699 10.01748454 357.78341389 10.01703453 C356.82672979 10.01692514 355.87004569 10.01681575 354.88437116 10.01670304 C323.85619483 10.01307152 292.82804185 9.99714746 261.79987446 9.97384417 C228.99816387 9.94925389 196.19646662 9.93552856 163.39474654 9.93433309 C159.79473638 9.93416163 156.19472623 9.9339462 152.59471607 9.93369865 C151.7082867 9.93364289 150.82185732 9.93358712 149.90856645 9.93352966 C135.6379219 9.93237859 121.3673013 9.92135197 107.09666484 9.9068116 C92.75631973 9.8924527 78.41600534 9.8892062 64.07565501 9.89725158 C55.55492246 9.90171051 47.03428906 9.89783668 38.51356952 9.88201307 C32.82133901 9.87226966 27.12917803 9.8734352 21.43694816 9.8834493 C18.19404747 9.88884593 14.95137543 9.88787941 11.70848313 9.87694058 C8.21174834 9.86589074 4.71551738 9.87330697 1.21879673 9.88533211 C0.21679218 9.87773691 -0.78521237 9.87014172 -1.8175807 9.86231637 C-14.46158903 9.95632943 -24.674005 14.20127242 -33.33377361 23.56976891 Z " fill="#F6F6F5" transform="translate(200.02127361297607,298.74273109436035)"/>
<path d="M0 0 C0.33 0 0.66 0 1 0 C1.33 24.75 1.66 49.5 2 75 C47.87 75 93.74 75 141 75 C141 99.42 141 123.84 141 149 C165.42 148.67 189.84 148.34 215 148 C214.67 172.75 214.34 197.5 214 223 C218.95 223 223.9 223 229 223 C228.67 221.02 228.34 219.04 228 217 C230.64 217 233.28 217 236 217 C247 238.31958763 247 238.31958763 247 243 C247.66 243 248.32 243 249 243 C249.20302734 242.195625 249.20302734 242.195625 249.41015625 241.375 C251.74353132 232.87983805 255.37546896 225.00375896 259 217 C261.64 217 264.28 217 267 217 C266.34 219.31 265.68 221.62 265 224 C267.64 224 270.28 224 273 224 C273 234.23 273 244.46 273 255 C277.95 255 282.9 255 288 255 C288.30305731 257.91655151 288.56828972 260.82843851 288.8125 263.75 C288.94688477 264.9875 288.94688477 264.9875 289.08398438 266.25 C289.26375997 268.59654455 289.36458709 270.67342567 289 273 C286.57421875 275.453125 286.57421875 275.453125 284 277 C282.54852097 279.90295805 282.62760975 281.77261779 283 285 C283.82266357 285.88252441 284.64532715 286.76504883 285.49291992 287.67431641 C288.74682432 291.41848566 288.65192779 294.66381084 288.48828125 299.4609375 C288.48120651 300.25150543 288.47413177 301.04207336 288.46684265 301.8565979 C288.43901463 304.36372433 288.37630474 306.86855712 288.3125 309.375 C288.28740184 311.08199883 288.26459133 312.78903292 288.24414062 314.49609375 C288.18922691 318.66493648 288.10304076 322.83208038 288 327 C254.95445262 327.13745997 221.90897966 327.24312218 188.86321141 327.30639198 C184.95812354 327.31389584 181.05303624 327.32166181 177.14794922 327.32958984 C176.37054649 327.33116371 175.59314376 327.33273757 174.79218337 327.33435912 C162.21957518 327.36043699 149.64713232 327.40772777 137.07462206 327.46291678 C124.16531277 327.51910982 111.25608981 327.55237038 98.34666324 327.56453097 C90.38660091 327.57274642 82.42700593 327.59865352 74.46708754 327.6474988 C68.35399343 327.68309072 62.24125248 327.68671002 56.12806892 327.67864609 C53.62716616 327.6802926 51.12624521 327.69217222 48.62544823 327.71523285 C22.51964075 327.94409275 22.51964075 327.94409275 11.0625 317.625 C1.93770907 307.47894293 -0.46525249 296.98329458 -0.36076355 283.56015015 C-0.36332682 282.3428744 -0.3658901 281.12559865 -0.36853105 279.87143576 C-0.37259633 276.51896398 -0.36330457 273.16702571 -0.34819686 269.81461883 C-0.33517714 266.18967613 -0.33963014 262.56474834 -0.34190369 258.93978882 C-0.34347269 252.66805541 -0.33410266 246.39641603 -0.31719017 240.12470627 C-0.29275393 231.05701036 -0.28499018 221.98935966 -0.2812262 212.92163439 C-0.27466895 198.20798443 -0.25472756 183.49438452 -0.22631836 168.78076172 C-0.19875894 154.4923528 -0.17753459 140.2039575 -0.16479492 125.91552734 C-0.16400675 125.03400389 -0.16321858 124.15248043 -0.16240653 123.24424414 C-0.15849126 118.82166548 -0.15470018 114.39908672 -0.15097082 109.9765079 C-0.11989756 73.31763661 -0.06708161 36.65882221 0 0 Z " fill="#F7F8F7" transform="translate(158,403)"/>
<path d="M0 0 C1.64150554 -0.00525911 1.64150554 -0.00525911 3.31617281 -0.01062447 C6.99082517 -0.01994381 10.66531924 -0.01501367 14.33997822 -0.01015663 C16.99811918 -0.01389262 19.65624835 -0.01841417 22.31438524 -0.02388728 C28.09778311 -0.03418548 33.88114751 -0.03703138 39.66455364 -0.03497505 C48.26493579 -0.0319246 56.86528091 -0.04025004 65.46565586 -0.0507243 C81.72032403 -0.07006748 97.97497959 -0.07569265 114.22965791 -0.07683842 C126.78275344 -0.07775749 139.33584403 -0.08187407 151.88893795 -0.08823967 C155.50228398 -0.09003476 159.11563003 -0.09181439 162.72897607 -0.09358943 C163.62726556 -0.09403152 164.52555505 -0.09447362 165.45106544 -0.09492911 C190.71900664 -0.10723783 215.98694612 -0.11513021 241.25489044 -0.11424255 C242.20757934 -0.1142114 243.16026824 -0.11418024 244.1418265 -0.11414814 C248.97045066 -0.11398192 253.79907482 -0.11378384 258.62769898 -0.11357872 C259.58668078 -0.11353883 260.54566258 -0.11349894 261.53370444 -0.11345784 C263.47299968 -0.11337697 265.41229493 -0.11329337 267.35159018 -0.11320706 C297.52232478 -0.11198161 327.69301442 -0.12699344 357.86373615 -0.15435219 C391.7607232 -0.18507724 425.6576807 -0.20228442 459.55468255 -0.20042574 C463.16960037 -0.20027648 466.78451818 -0.20017907 470.399436 -0.20011711 C471.73456133 -0.20008215 471.73456133 -0.20008215 473.0966589 -0.20004648 C487.41681824 -0.19998495 501.73693854 -0.21275355 516.05708627 -0.22998164 C530.45101819 -0.24694026 544.84489301 -0.24891017 559.2388294 -0.235763 C567.78785116 -0.22837533 576.33669943 -0.23202627 584.8857028 -0.25164768 C590.60055101 -0.26365491 596.31527368 -0.26104839 602.03011616 -0.24670668 C605.28348603 -0.23894982 608.53645457 -0.2395954 611.78981318 -0.25362138 C630.44196604 -0.32870393 647.72950969 0.46840624 662.22872639 13.88226891 C673.73134121 26.28241836 676.44481182 39.79500128 676.35294819 56.18649864 C676.35569337 57.67450903 676.35974936 59.16251747 676.36499184 60.65052116 C676.37552029 64.71293656 676.36748791 68.77513006 676.35624135 72.83753562 C676.34736421 77.22883957 676.35585291 81.62011558 676.36210346 86.0114193 C676.37157261 94.60295146 676.36500839 103.19439939 676.35284052 111.78592528 C676.33919367 121.79594956 676.34086071 131.80595397 676.34297385 141.81598519 C676.34616091 159.67777801 676.33451169 177.5395309 676.31490803 195.40131187 C676.29589939 212.72554299 676.28882233 230.04972733 676.29440022 247.37396812 C676.30046019 266.25131359 676.30027735 285.12863851 676.28891438 304.00598228 C676.28770712 306.01937985 676.28650114 308.03277743 676.28529644 310.046175 C676.28439113 311.53202764 676.28439113 311.53202764 676.28346753 313.0478975 C676.27959123 320.02239538 676.27998087 326.99688561 676.28188229 333.97138405 C676.28400598 342.47144902 676.27876679 350.97147307 676.26426873 359.47152652 C676.25703344 363.80680655 676.25294038 368.14202703 676.25751209 372.47731209 C676.26159786 376.44839883 676.2563965 380.41936276 676.24388602 384.39043091 C676.24096589 385.82430103 676.2413796 387.25818279 676.24552909 388.69204988 C676.28882612 405.15214675 672.85044269 416.86249841 661.33419514 429.03461266 C650.39527761 439.35674213 638.81270021 442.41280093 624.1511097 442.39148998 C623.05341604 442.39384221 621.95572239 442.39619444 620.82476529 442.39861795 C617.12671156 442.40530346 613.428693 442.40484986 609.73063374 442.40443993 C607.06042288 442.40773881 604.39021509 442.41142672 601.72000569 442.41558141 C595.13830663 442.42490211 588.5566143 442.42882855 581.97490946 442.43110037 C574.09203683 442.43406377 566.20917312 442.44276191 558.32630517 442.45151465 C539.27432431 442.47235309 520.22234191 442.48282741 501.17035232 442.49164426 C492.15814834 442.49585112 483.14594503 442.50107302 474.13374161 442.50632879 C443.28574476 442.52421733 412.43774773 442.53921402 381.58974648 442.54664898 C379.65334831 442.54712374 377.71695015 442.54759962 375.78055198 442.54807664 C374.82027333 442.54831302 373.85999469 442.54854939 372.87061669 442.54879293 C368.00536744 442.54999413 363.1401182 442.55120958 358.27486897 442.55243492 C356.82658537 442.55279515 356.82658537 442.55279515 355.34904352 442.55316265 C324.03683874 442.56105749 292.72467183 442.584494 261.41248359 442.61699087 C228.30933195 442.65128377 195.20620247 442.67099955 162.10303277 442.67429322 C158.46958362 442.67471076 154.83613449 442.67519033 151.20268536 442.6757164 C149.86069407 442.67590119 149.86069407 442.67590119 148.49159185 442.67608971 C134.09095896 442.67842223 119.69037003 442.69408493 105.28975281 442.71455825 C90.81720066 442.73480756 76.34470134 442.74029775 61.87213764 442.73078761 C53.27382323 442.72556942 44.67568467 442.73146517 36.07739554 442.75332228 C30.33217794 442.76682337 24.58708147 442.76575953 18.84186267 442.75292033 C15.56946678 442.74601906 12.2974743 442.74758461 9.02509526 442.76248042 C5.49494477 442.7775554 1.96567743 442.76795589 -1.56445122 442.75225353 C-2.57345483 442.76247574 -3.58245844 442.77269795 -4.62203792 442.78322992 C-15.8201583 442.67448303 -24.82555369 438.35424897 -34.02127361 432.25726891 C-34.90814861 431.67976891 -35.79502361 431.10226891 -36.70877361 430.50726891 C-45.39489231 422.05591018 -51.63359884 410.37935257 -52.15122545 398.19946998 C-52.15355609 397.10608741 -52.15588673 396.01270484 -52.158288 394.88618946 C-52.16336254 393.61778766 -52.16843709 392.34938586 -52.1736654 391.04254764 C-52.17426699 389.64247735 -52.1747661 388.24240702 -52.17517376 386.84233665 C-52.17919149 385.34911964 -52.18363023 383.85590371 -52.18845332 382.36268908 C-52.20038978 378.26257263 -52.20606044 374.16246792 -52.21063447 370.06233752 C-52.21660158 365.63883232 -52.22820853 361.21534108 -52.23892498 356.79184532 C-52.26342194 346.11121553 -52.27807131 335.43058113 -52.29098505 324.7499319 C-52.29469868 321.73221508 -52.29867176 318.71449872 -52.30273771 315.69678235 C-52.32797379 296.94788302 -52.35002179 278.19898294 -52.36246586 259.45007038 C-52.36539543 255.10951739 -52.36835712 250.76896442 -52.37137127 246.42841148 C-52.37211732 245.34962137 -52.37286337 244.27083125 -52.37363203 243.15935052 C-52.38628391 225.68621026 -52.41950667 208.21317178 -52.4611731 190.7400791 C-52.50362104 172.79183874 -52.52716411 154.84365047 -52.53238642 136.89536005 C-52.53579706 126.82166651 -52.5475116 116.74813213 -52.58048916 106.67448807 C-52.60852997 98.09496667 -52.61947124 89.51563708 -52.6082937 80.93607341 C-52.60311758 76.56171728 -52.60592549 72.18776257 -52.63075924 67.81346512 C-52.65334394 63.80169922 -52.65244122 59.79062097 -52.63355537 55.77884228 C-52.63076821 54.33464502 -52.63628185 52.89040019 -52.65136831 51.44627904 C-52.80219539 36.056311 -48.33080686 24.89350175 -37.73611736 13.88226891 C-26.87557033 3.41758967 -14.760302 -0.06006931 0 0 Z M-33.33377361 23.56976891 C-39.30857483 31.08919203 -42.1396806 38.8887381 -42.15549469 48.43000698 C-42.15995253 49.67961745 -42.16441038 50.92922793 -42.16900331 52.21670538 C-42.16891402 53.60075574 -42.16872418 54.9848061 -42.16844463 56.36885643 C-42.17174517 57.84129891 -42.17547114 59.31374049 -42.17958611 60.78618091 C-42.18959259 64.8334816 -42.19332073 68.88076746 -42.19597542 72.92807877 C-42.19988248 77.29295742 -42.20946053 81.65782437 -42.21818829 86.02269554 C-42.23794117 96.56432537 -42.24801734 107.10595614 -42.25691608 117.64759985 C-42.26130083 122.6135843 -42.26666715 127.57956769 -42.27190495 132.5455513 C-42.28891592 149.05649564 -42.30340977 165.56743932 -42.31065369 182.07839108 C-42.31256353 186.36205674 -42.31448387 190.6457224 -42.31643963 194.92938805 C-42.31692337 195.9940529 -42.31740711 197.05871776 -42.31790551 198.15564518 C-42.32620464 215.39994634 -42.35154019 232.6441781 -42.38402031 249.88844896 C-42.41710489 267.59822093 -42.43510371 285.30795766 -42.43829793 303.01776069 C-42.4404617 312.95894896 -42.44919106 322.90003603 -42.4747591 332.84119415 C-42.49648519 341.308031 -42.50450711 349.77474206 -42.49479232 358.24160362 C-42.49025318 362.55906646 -42.49211127 366.87626986 -42.51155376 371.19369698 C-42.52922601 375.15232767 -42.52815514 379.11051043 -42.51265647 383.06914615 C-42.51028654 384.49518201 -42.51457189 385.92124923 -42.52648512 387.3472373 C-42.63090379 400.6803024 -40.29592524 411.35115164 -31.02127361 421.25726891 C-30.49791424 421.82187828 -29.97455486 422.38648766 -29.43533611 422.96820641 C-17.32635824 434.6046388 -1.73013589 432.95803192 13.85464191 432.87199974 C16.5198223 432.87561411 19.18493198 432.88121105 21.85009599 432.88922173 C27.63637359 432.90262609 33.42240303 432.89756416 39.2086668 432.88021278 C47.8129174 432.85448262 56.41699249 432.85751922 65.02126857 432.86625536 C79.49899759 432.88010473 93.97662218 432.87045614 108.45433521 432.84704971 C122.79061224 432.82389107 137.12684306 432.81024265 151.46313953 432.80953217 C152.35534733 432.80947872 153.24755513 432.80942527 154.16679953 432.8093702 C157.78859484 432.80918159 161.41039013 432.80906002 165.03218544 432.80902787 C198.99700885 432.80868716 232.96176194 432.7816372 266.92655847 432.74083578 C297.10459877 432.70469823 327.2825982 432.68557207 357.46065998 432.68280602 C358.42048322 432.68271451 359.38030647 432.68262301 360.36921526 432.68252873 C363.27295852 432.6822523 366.17670179 432.68198081 369.08044505 432.68170971 C372.93721342 432.68134667 376.79398179 432.68097327 380.65075016 432.68059254 C381.60240011 432.68050231 382.55405006 432.68041208 383.53453789 432.68031912 C413.26504519 432.67733798 442.99554489 432.65987336 472.726045 432.63990493 C482.59019281 432.63328858 492.45433941 432.62759935 502.31848907 432.62471461 C503.20669121 432.62445344 504.09489334 432.62419226 505.01001069 432.62392317 C505.8963981 432.62366405 506.78278551 432.62340492 507.69603315 432.62313794 C524.75883405 432.6181434 541.82160476 432.60693652 558.88438907 432.58183765 C567.43664969 432.5694269 575.98887351 432.56239007 584.54114333 432.56318002 C590.2516378 432.56314226 595.96209293 432.55582942 601.67257189 432.54255337 C604.92739128 432.53518021 608.18211581 432.53202173 611.43694422 432.53542917 C614.94293683 432.53858243 618.44869152 432.52952016 621.95465946 432.51733112 C622.96501599 432.52115591 623.97537252 432.5249807 625.01634592 432.5289214 C636.06683596 432.46098385 645.84051077 429.69843292 654.28341389 422.21430016 C661.97472939 414.01506759 666.09430751 405.33361429 666.11294746 394.08173752 C666.11740531 392.83151035 666.12186315 391.58128318 666.12645608 390.29317033 C666.12636679 388.90843096 666.12617696 387.5236916 666.12589741 386.13895226 C666.12919794 384.66579708 666.13292391 383.19264281 666.13703889 381.71948969 C666.14704533 377.67025839 666.15077349 373.62104191 666.1534282 369.57179999 C666.15733523 365.20489546 666.16691324 360.83800263 666.17564106 356.47110558 C666.19539336 345.92503165 666.20546975 335.37895679 666.21436885 324.83286899 C666.21875344 319.86526136 666.22411978 314.89765478 666.22935772 309.93004799 C666.24636815 293.41481243 666.26086235 276.89957754 666.26810646 260.38433456 C666.27001632 256.09962908 666.27193666 251.81492359 666.2738924 247.53021812 C666.27437614 246.46529096 666.27485988 245.40036379 666.27535828 244.30316611 C666.28365876 227.05172289 666.30899682 209.800349 666.34147308 192.54893605 C666.37455074 174.83351885 666.39255583 157.11813687 666.3957507 139.40268862 C666.39791505 129.45761987 666.40665287 119.51265225 666.43221188 109.5676136 C666.45392844 101.09818633 666.46196454 92.62888477 666.45224509 84.15943281 C666.44770329 79.84006867 666.44957967 75.52096386 666.46900654 71.20163536 C666.48665949 67.2424401 666.48562346 63.28369293 666.47010925 59.32449277 C666.4677364 57.89712882 666.47203992 56.46973366 666.4839379 55.04241733 C666.58104931 42.61656318 664.19012946 31.9102294 655.97872639 22.25726891 C645.62188578 12.38895851 635.13052185 10.1015421 621.24202061 10.12584114 C619.6102261 10.12276219 619.6102261 10.12276219 617.94546604 10.11962104 C614.28086202 10.11394276 610.61629547 10.11540932 606.95168781 10.11682701 C604.30551314 10.11424386 601.65934152 10.11126968 599.0131681 10.10782361 C592.49095287 10.10024665 585.96874584 10.0980507 579.44652667 10.09749455 C571.63489939 10.09658063 563.82327968 10.08991227 556.01165566 10.08314773 C537.13232227 10.06708917 518.2529897 10.06118484 499.37365071 10.05639898 C490.44349705 10.05406313 481.51334403 10.05046052 472.58319088 10.0467036 C442.01707563 10.03386892 411.45096075 10.02314911 380.88484287 10.019701 C378.96617613 10.01947937 377.04750938 10.01925759 375.12884264 10.01903565 C373.20553616 10.01881501 371.28222968 10.01859453 369.3589232 10.0183742 C365.50042009 10.01793165 361.64191699 10.01748454 357.78341389 10.01703453 C356.82672979 10.01692514 355.87004569 10.01681575 354.88437116 10.01670304 C323.85619483 10.01307152 292.82804185 9.99714746 261.79987446 9.97384417 C228.99816387 9.94925389 196.19646662 9.93552856 163.39474654 9.93433309 C159.79473638 9.93416163 156.19472623 9.9339462 152.59471607 9.93369865 C151.7082867 9.93364289 150.82185732 9.93358712 149.90856645 9.93352966 C135.6379219 9.93237859 121.3673013 9.92135197 107.09666484 9.9068116 C92.75631973 9.8924527 78.41600534 9.8892062 64.07565501 9.89725158 C55.55492246 9.90171051 47.03428906 9.89783668 38.51356952 9.88201307 C32.82133901 9.87226966 27.12917803 9.8734352 21.43694816 9.8834493 C18.19404747 9.88884593 14.95137543 9.88787941 11.70848313 9.87694058 C8.21174834 9.86589074 4.71551738 9.87330697 1.21879673 9.88533211 C0.21679218 9.87773691 -0.78521237 9.87014172 -1.8175807 9.86231637 C-14.46158903 9.95632943 -24.674005 14.20127242 -33.33377361 23.56976891 Z " fill="#BEA163" transform="translate(200.02127361297607,298.74273109436035)"/>
<path d="M0 0 C211.86 0 423.72 0 642 0 C642 0.33 642 0.66 642 1 C636.06 1 630.12 1 624 1 C623.67 1.66 623.34 2.32 623 3 C623 2.34 623 1.68 623 1 C587.36 1.495 587.36 1.495 551 2 C550.67 4.97 550.34 7.94 550 11 C549.67 11 549.34 11 549 11 C549 7.7 549 4.4 549 1 C524.91 1 500.82 1 476 1 C476 9.25 476 17.5 476 26 C451.58 26 427.16 26 402 26 C402 39.86 402 53.72 402 68 C353.49 68 304.98 68 255 68 C255 54.14 255 40.28 255 26 C230.91 26.33 206.82 26.66 182 27 C181.67 40.53 181.34 54.06 181 68 C156.91 68 132.82 68 108 68 C108 54.14 108 40.28 108 26 C132.09 26 156.18 26 181 26 C181 21.38 181 16.76 181 12 C181.33 8.37 181.66 4.74 182 1 C121.94 1 61.88 1 0 1 C0 0.67 0 0.34 0 0 Z " fill="#F2F2F2" transform="translate(191,741)"/>
<path d="M0 0 C4.50126261 3.13042354 7.4716122 7.88814947 8.71875 13.1953125 C10.55217537 36.63495066 -1.36521923 56.26794279 -16.0546875 73.6328125 C-16.78945313 74.4784375 -17.52421875 75.3240625 -18.28125 76.1953125 C-18.95414062 76.9790625 -19.62703125 77.7628125 -20.3203125 78.5703125 C-43.16970026 104.58609482 -43.16970026 104.58609482 -55.921875 111.66015625 C-58.75278352 113.33822624 -60.3995922 114.47105619 -62.28125 117.1953125 C-63.64294411 123.08341751 -63.44010971 129.19041534 -63.28125 135.1953125 C-62.71277344 134.26589844 -62.14429688 133.33648437 -61.55859375 132.37890625 C-53.10860093 118.7576651 -43.47709429 108.2658902 -27.28125 104.1953125 C-13.51629616 102.09307159 -3.1075493 104.7548951 8.07421875 112.9140625 C14.51650024 118.59622954 18.00110448 126.60182378 21.71875 134.1953125 C56.61621777 119.12216777 56.61621777 119.12216777 80.71875 91.1953125 C82.36875 91.5253125 84.01875 91.8553125 85.71875 92.1953125 C86.62750448 94.68724304 86.80268372 95.92562381 86.00390625 98.4921875 C80.86442128 108.8039976 73.31807058 115.08437247 63.71875 121.1953125 C63.14044434 121.56382324 62.56213867 121.93233398 61.96630859 122.31201172 C31.98974549 141.1953125 31.98974549 141.1953125 22.71875 141.1953125 C22.73969727 141.83855469 22.76064453 142.48179687 22.78222656 143.14453125 C23.58018751 171.46709437 17.13734452 194.74508865 -2.34375 216.0078125 C-12.01871352 225.38086226 -24.34829065 230.51211271 -37.72558594 230.58251953 C-44.89159729 230.44699573 -49.61588453 228.66967878 -54.85546875 223.703125 C-60.15393546 217.84292973 -60.73122549 212.22208009 -60.59375 204.609375 C-59.29925182 190.46698238 -49.61328044 178.62758986 -39.2890625 169.5703125 C-30.25867708 162.10659953 -20.38397933 156.08310837 -10.28125 150.1953125 C-9.61464355 149.79812012 -8.94803711 149.40092773 -8.26123047 148.99169922 C-3.51142222 146.1953125 -3.51142222 146.1953125 -1.28125 146.1953125 C-4.89001943 129.4599317 -4.89001943 129.4599317 -16.28125 117.1953125 C-22.12081194 114.39470626 -27.93298361 114.35743192 -34.28125 115.1953125 C-46.60551359 120.12876962 -54.66948553 133.85815617 -59.6875 145.44140625 C-62.81047564 153.67730238 -64.71794167 162.04133415 -66.484375 170.65234375 C-67.28125 174.1953125 -67.28125 174.1953125 -68.28125 175.1953125 C-70.71769696 175.40330187 -73.09093226 175.51975978 -75.53125 175.5703125 C-76.53478516 175.62638672 -76.53478516 175.62638672 -77.55859375 175.68359375 C-81.24476694 175.74877166 -83.04144393 175.37971039 -85.98413086 173.11694336 C-88.8745196 169.44075226 -88.86480582 167.55612534 -88.76953125 162.92578125 C-88.76245651 162.24477859 -88.75538177 161.56377594 -88.74809265 160.86213684 C-88.72025069 158.70121255 -88.65754527 156.54294428 -88.59375 154.3828125 C-88.56865332 152.91214698 -88.54584253 151.44144057 -88.52539062 149.97070312 C-88.47046188 146.37805293 -88.38426647 142.78694222 -88.28125 139.1953125 C-89.71232153 140.73990699 -91.13680462 142.29060689 -92.55859375 143.84375 C-93.35257568 144.70661621 -94.14655762 145.56948242 -94.96459961 146.45849609 C-98.29546815 150.39347727 -100.82893184 154.67535354 -103.28125 159.1953125 C-108.03125 158.3203125 -108.03125 158.3203125 -110.28125 157.1953125 C-108.9258339 152.11250213 -106.54364533 148.48014127 -103.28125 144.4453125 C-102.84941406 143.8884375 -102.41757812 143.3315625 -101.97265625 142.7578125 C-99.72714968 139.93343596 -97.55071384 137.42385414 -94.7878418 135.08056641 C-87.32129559 128.59329508 -85.50335161 122.7051508 -84.36410522 113.28234863 C-83.89961022 109.48186826 -83.28809167 105.70408494 -82.6953125 101.921875 C-82.5808226 101.16998901 -82.4663327 100.41810303 -82.34837341 99.64343262 C-77.14069653 66.17998567 -61.25047107 26.25445184 -33.4921875 5.06640625 C-23.44091534 -1.71466328 -11.32187969 -6.42471744 0 0 Z " fill="#353E42" transform="translate(494.28125,339.8046875)"/>
<path d="M0 0 C2.64 0 5.28 0 8 0 C8.33 5.28 8.66 10.56 9 16 C10.0621875 14.845 11.124375 13.69 12.21875 12.5 C13.64473866 10.9989593 15.07188326 9.49901615 16.5 8 C17.19609375 7.236875 17.8921875 6.47375 18.609375 5.6875 C23.85553887 0.24703377 23.85553887 0.24703377 27.31640625 -0.5 C29.53125 -0.5 29.53125 -0.5 33 0 C31.02 2.97 31.02 2.97 29 6 C32.43897339 5.97722534 35.8746113 5.89996096 39.3125 5.8125 C40.28896484 5.80669922 41.26542969 5.80089844 42.27148438 5.79492188 C44.94045278 5.71237646 47.39633486 5.59782301 50 5 C51.96305335 2.59211758 51.96305335 2.59211758 53 0 C55.79965679 -0.66913403 58.08800141 -0.23868841 61 0 C61.66 1.98 62.32 3.96 63 6 C69.27 6 75.54 6 82 6 C82.33 4.02 82.66 2.04 83 0 C86.70806596 -0.11674705 90.4156554 -0.18743274 94.125 -0.25 C95.17171875 -0.28351562 96.2184375 -0.31703125 97.296875 -0.3515625 C103.37835036 -0.4285432 107.2972352 -0.29709499 112 4 C114.79927794 6.93510788 115.41226807 8.90633704 115.375 12.9375 C115.20897337 17.12506061 115.02178617 19.88664455 112 23 C106.7202462 26.1367949 103.27881231 27 97 27 C97 39.21 97 51.42 97 64 C129.34 64 161.68 64 195 64 C195 65.32 195 66.64 195 68 C162.66 68 130.32 68 97 68 C97 81.86 97 95.72 97 110 C151.78 110 206.56 110 263 110 C263 110.33 263 110.66 263 111 C183.8 111 104.6 111 23 111 C22.67 97.8 22.34 84.6 22 71 C21.34 69.68 20.68 68.36 20 67 C20.44444444 60.55555556 20.44444444 60.55555556 23 58 C24.36915289 49.65042671 25.55332671 37.41663841 20.98828125 29.96484375 C18.80046392 27.3580096 16.6626828 25.11324032 14 23 C10.16451655 25.54335711 10.16451655 25.54335711 8.29296875 29.578125 C8.25816406 30.45984375 8.22335937 31.3415625 8.1875 32.25 C8.13980469 33.14203125 8.09210937 34.0340625 8.04296875 34.953125 C8.02169922 35.96632813 8.02169922 35.96632813 8 37 C5.36 37 2.72 37 0 37 C0 24.79 0 12.58 0 0 Z " fill="#F1F1F0" transform="translate(570,620)"/>
<path d="M0 0 C1.46365204 2.92730407 1.02375277 5.41723969 0.9230957 8.68334961 C0.88340156 10.11187905 0.84422717 11.540423 0.80549622 12.96897888 C0.77255431 14.110901 0.77255431 14.110901 0.73894691 15.27589226 C0.60761282 20.21701196 0.5398847 25.15951557 0.46038532 30.10169125 C0.38749193 34.41244945 0.29361025 38.72052791 0.1496582 43.02954102 C-0.5739959 65.30294926 0.64180772 82.19774955 11.90934753 101.9143219 C13 104 13 104 13 106 C10.36 106 7.72 106 5 106 C4.01 103.69 3.02 101.38 2 99 C-3.94 99 -9.88 99 -16 99 C-16.99 101.31 -17.98 103.62 -19 106 C-21.64 106 -24.28 106 -27 106 C-25.03224173 99.68231191 -22.63871581 93.69579793 -19.875 87.6875 C-19.16101643 86.13029928 -18.44996682 84.57174921 -17.7421875 83.01171875 C-17.4313623 82.33584717 -17.12053711 81.65997559 -16.80029297 80.96362305 C-15.82635846 78.70649322 -15.82635846 78.70649322 -15 75 C-21.27 75 -27.54 75 -34 75 C-34 85.23 -34 95.46 -34 106 C-36.97 106 -39.94 106 -43 106 C-43 101.05 -43 96.1 -43 91 C-48.94 91 -54.88 91 -61 91 C-61 95.95 -61 100.9 -61 106 C-63.64 106 -66.28 106 -69 106 C-69.33 95.77 -69.66 85.54 -70 75 C-70.99 75 -71.98 75 -73 75 C-73.02312484 65.49925675 -73.0409158 55.99852312 -73.05181217 46.49775791 C-73.05704069 42.08662996 -73.06413777 37.6755212 -73.07543945 33.2644043 C-73.08626944 29.01098885 -73.09227707 24.75759191 -73.09487724 20.50416374 C-73.09673129 18.87778367 -73.10035152 17.25140466 -73.10573006 15.62503242 C-73.11294198 13.35489807 -73.11399088 11.08484115 -73.11352539 8.81469727 C-73.115746 7.52008072 -73.11796661 6.22546417 -73.12025452 4.89161682 C-73 2 -73 2 -72 1 C-69.76142644 0.87588418 -67.51894516 0.82196977 -65.27709961 0.79467773 C-64.5746965 0.78477814 -63.8722934 0.77487854 -63.14860535 0.76467896 C-60.81655296 0.73297878 -58.48448016 0.70827312 -56.15234375 0.68359375 C-54.53950965 0.66303156 -52.92668104 0.64203529 -51.31385803 0.62062073 C-47.06090725 0.56532408 -42.80790723 0.51594844 -38.55487061 0.46777344 C-34.21817625 0.41761369 -29.88155373 0.36189885 -25.54492188 0.30664062 C-17.03000859 0.19896625 -8.51503535 0.09754205 0 0 Z " fill="#F1F1F1" transform="translate(372,551)"/>
<path d="M0 0 C0.33 0 0.66 0 1 0 C1 117.15 1 234.3 1 355 C0.67 355 0.34 355 0 355 C0 306.82 0 258.64 0 209 C-23.1 209 -46.2 209 -70 209 C-70 184.58 -70 160.16 -70 135 C-46.9 135 -23.8 135 0 135 C0 90.45 0 45.9 0 0 Z " fill="#F2F2F1" transform="translate(147,343)"/>
<path d="M0 0 C24.09 0 48.18 0 73 0 C73 24.75 73 49.5 73 75 C48.91 75 24.82 75 0 75 C0 50.25 0 25.5 0 0 Z " fill="#F2F3F2" transform="translate(299,403)"/>
<path d="M0 0 C24.09 0 48.18 0 73 0 C73 24.42 73 48.84 73 74 C48.91 74 24.82 74 0 74 C0 49.58 0 25.16 0 0 Z " fill="#FEFEFE" transform="translate(667,478)"/>
<path d="M0 0 C11.88 0 23.76 0 36 0 C36 22.11 36 44.22 36 67 C31.71 67.33 27.42 67.66 23 68 C22.67 71.3 22.34 74.6 22 78 C21.67 76.68 21.34 75.36 21 74 C14.73 74 8.46 74 2 74 C1.34 72.02 0.68 70.04 0 68 C-1.258125 68.061875 -2.51625 68.12375 -3.8125 68.1875 C-4.87404297 68.23970703 -4.87404297 68.23970703 -5.95703125 68.29296875 C-6.96830078 68.64294922 -6.96830078 68.64294922 -8 69 C-8.3609375 69.8353125 -8.721875 70.670625 -9.09375 71.53125 C-11 74 -11 74 -13.19995117 74.40942383 C-16.04323407 74.49287502 -18.84564324 74.43442785 -21.6875 74.3125 C-23.16959961 74.27866211 -23.16959961 74.27866211 -24.68164062 74.24414062 C-27.12261559 74.18517988 -29.56054868 74.10295048 -32 74 C-30.125 70.125 -30.125 70.125 -29 69 C-31.97 69 -34.94 69 -38 69 C-38.02312659 60.54232666 -38.0409167 52.08466644 -38.05181217 43.62696934 C-38.05704031 39.70011342 -38.06413669 35.77327906 -38.07543945 31.84643555 C-38.0862708 28.05985743 -38.09227736 24.2733001 -38.09487724 20.48670769 C-38.09673105 19.03895681 -38.10035081 17.59120712 -38.10573006 16.14346504 C-38.11294367 14.12242865 -38.11340808 12.10137152 -38.11352539 10.08032227 C-38.115746 8.92782486 -38.11796661 7.77532745 -38.12025452 6.58790588 C-38 4 -38 4 -37 3 C-34.1883662 2.91138008 -31.40141745 2.88477645 -28.58984375 2.90234375 C-27.74780899 2.9037587 -26.90577423 2.90517365 -26.03822327 2.90663147 C-23.33794665 2.91224737 -20.63775172 2.92480252 -17.9375 2.9375 C-16.11132932 2.94251295 -14.28515734 2.94707621 -12.45898438 2.95117188 C-7.97262458 2.96222196 -3.48632616 2.97949721 1 3 C0.505 1.515 0.505 1.515 0 0 Z " fill="#FDFEFD" transform="translate(631,552)"/>
<path d="M0 0 C24.42 0 48.84 0 74 0 C74 23.1 74 46.2 74 70 C61.13 70 48.26 70 35 70 C35.495 68.02 35.495 68.02 36 66 C24.12 66 12.24 66 0 66 C0 44.22 0 22.44 0 0 Z " fill="#FEFEFE" transform="translate(593,310)"/>
<path d="M0 0 C24.42 0 48.84 0 74 0 C74 20.79 74 41.58 74 63 C39.35 63 4.7 63 -31 63 C-31 62.67 -31 62.34 -31 62 C-20.77 62 -10.54 62 0 62 C0 41.54 0 21.08 0 0 Z " fill="#F2F2F2" transform="translate(225,236)"/>
<path d="M0 0 C1.29461655 0.00222061 2.58923309 0.00444122 3.92308044 0.00672913 C4.99131546 0.00651009 4.99131546 0.00651009 6.08113098 0.00628662 C8.4457143 0.00698581 10.81021979 0.01477846 13.17478943 0.02259827 C14.81003781 0.02446243 16.44528675 0.02588634 18.08053589 0.02688599 C22.39273103 0.03071134 26.7048927 0.04054177 31.01707458 0.05158997 C36.18657998 0.06359825 41.35609654 0.06820624 46.52561188 0.07404327 C54.38655895 0.08375352 62.24743253 0.10290993 70.10838318 0.12025452 C70.10838318 20.91025452 70.10838318 41.70025452 70.10838318 63.12025452 C45.68838318 63.12025452 21.26838318 63.12025452 -3.89161682 63.12025452 C-3.91224182 52.91087952 -3.93286682 42.70150452 -3.95411682 32.18275452 C-3.96322083 28.95502258 -3.97232483 25.72729065 -3.98170471 22.40174866 C-3.98462359 19.86130312 -3.98717221 17.32085711 -3.98927307 14.78041077 C-3.99188644 14.11617599 -3.99449982 13.45194122 -3.99719238 12.76757812 C-4.0044737 10.82012594 -4.00495523 8.87265194 -4.00514221 6.92518616 C-4.00736282 5.82598343 -4.00958344 4.7267807 -4.01187134 3.5942688 C-3.83801872 0.01757261 -3.62275474 0.15066056 0 0 Z " fill="#F2F2F2" transform="translate(375.89161682128906,235.87974548339844)"/>
<path d="M0 0 C48.51 0 97.02 0 147 0 C147 8.25 147 16.5 147 25 C98.49 25 49.98 25 0 25 C0 16.75 0 8.5 0 0 Z " fill="#FEFEFE" transform="translate(446,742)"/>
<path d="M0 0 C24.42 0 48.84 0 74 0 C74 13.86 74 27.72 74 42 C49.58 42 25.16 42 0 42 C0 28.14 0 14.28 0 0 Z " fill="#F2F3F2" transform="translate(151,767)"/>
<path d="M0 0 C24.42 0 48.84 0 74 0 C74.020625 6.55875 74.04125 13.1175 74.0625 19.875 C74.071604 21.94507324 74.08070801 24.01514648 74.09008789 26.14794922 C74.09300772 27.78352799 74.09555612 29.41910748 74.09765625 31.0546875 C74.10277222 31.90812744 74.10788818 32.76156738 74.11315918 33.64086914 C74.1140718 39.7718564 74.1140718 39.7718564 73 42 C48.91 42 24.82 42 0 42 C0 28.14 0 14.28 0 0 Z " fill="#FEFEFD" transform="translate(299,688)"/>
<path d="M0 0 C1 3 1 3 1.43457031 4.98608398 C2.40305614 8.43558294 4.69749129 11.17260178 6.75 14.0625 C7.75955842 15.50620015 8.76865408 16.95022398 9.77734375 18.39453125 C10.3069873 19.14943848 10.83663086 19.9043457 11.38232422 20.68212891 C14.05804808 24.51601395 16.68134407 28.38546467 19.3125 32.25 C24.45367554 39.77963198 29.66531875 47.25785805 34.90283203 54.72070312 C39.8561238 61.78221983 44.75128156 68.8819634 49.625 75.99853516 C51.11926527 78.17360381 52.6214968 80.34302648 54.125 82.51171875 C54.63716064 83.25196289 55.14932129 83.99220703 55.67700195 84.75488281 C56.66593531 86.18385715 57.65659302 87.61164003 58.64916992 89.03808594 C62 93.88766433 62 93.88766433 62 95 C56.87754801 95.27348814 51.75939876 95.4721808 46.63134766 95.60424805 C44.89068565 95.65932002 43.15052697 95.7342122 41.41162109 95.82983398 C27.25523107 96.58835689 27.25523107 96.58835689 22.52392578 93.25610352 C20.79121042 90.92584426 19.40622324 88.56608527 18.0826416 85.98471069 C16.32195686 82.75700374 14.23224153 79.75543857 12.18255615 76.70600891 C10.32454209 73.94043028 8.49485614 71.1579207 6.671875 68.36914062 C6.04603516 67.41241455 5.42019531 66.45568848 4.77539062 65.4699707 C3.51905847 63.54786643 2.26287106 61.62566753 1.00683594 59.70336914 C-0.84960249 56.86432556 -2.70885158 54.02715918 -4.5703125 51.19140625 C-5.17844788 50.26486237 -5.78658325 49.33831848 -6.41314697 48.38369751 C-11.35637814 40.89169196 -16.47006328 33.52797989 -21.69094849 26.22694397 C-22.24265717 25.45072189 -22.79436584 24.67449982 -23.36279297 23.87475586 C-23.84940399 23.19618027 -24.33601501 22.51760468 -24.83737183 21.81846619 C-26 20 -26 20 -27 17 C-26.50185791 16.73372803 -26.00371582 16.46745605 -25.49047852 16.19311523 C-12.1012609 9.07603948 -12.1012609 9.07603948 0 0 Z " fill="#BCA162" transform="translate(569,459)"/>
<path d="M0 0 C24.09 0 48.18 0 73 0 C73 13.86 73 27.72 73 42 C48.91 42 24.82 42 0 42 C0 28.14 0 14.28 0 0 Z " fill="#F2F3F2" transform="translate(815,767)"/>
<path d="M0 0 C10.23 0 20.46 0 31 0 C31 26.73 31 53.46 31 81 C14 89 14 89 11 90 C10.62488281 89.27554688 10.24976563 88.55109375 9.86328125 87.8046875 C9.35152344 86.83789062 8.83976563 85.87109375 8.3125 84.875 C7.56419922 83.44800781 7.56419922 83.44800781 6.80078125 81.9921875 C5.07751424 78.88728314 5.07751424 78.88728314 2.42292786 76.27438354 C-0.46640737 72.8346785 -0.60664402 70.12804884 -0.56762695 65.61767578 C-0.56835709 64.90478897 -0.56908722 64.19190216 -0.56983948 63.45741272 C-0.56637747 61.11925075 -0.52758777 58.78312297 -0.48828125 56.4453125 C-0.47894805 54.81722095 -0.47183433 53.18911529 -0.46684265 51.56100464 C-0.4478124 47.28959939 -0.39874707 43.01905321 -0.34332275 38.74798584 C-0.29204373 34.38419209 -0.26931023 30.02025863 -0.24414062 25.65625 C-0.19062311 17.10372977 -0.10272093 8.55207095 0 0 Z " fill="#BA9F60" transform="translate(507,377)"/>
<path d="M0 0 C3.34771923 2.76550719 5.793027 4.94723502 6.23828125 9.36328125 C6.68895552 27.27165349 -2.0715251 43.3003761 -13 57 C-13.7425 57.94617188 -14.485 58.89234375 -15.25 59.8671875 C-26.87447773 74.14349921 -40.20063725 88.00230841 -55 99 C-56.29728845 95.10813465 -55.44632496 92.1959221 -54.5625 88.3125 C-54.38493164 87.52939453 -54.20736328 86.74628906 -54.02441406 85.93945312 C-46.68958697 55.14035863 -34.1584537 21.52892411 -9 1 C-5.86128812 -0.56935594 -3.46144178 -0.35201103 0 0 Z " fill="#F4F4F3" transform="translate(490,347)"/>
<path d="M0 0 C1.85253906 0.14111328 1.85253906 0.14111328 4 1 C5.63964844 2.97998047 5.63964844 2.97998047 7.359375 5.7421875 C8.05611328 6.83241211 8.75285156 7.92263672 9.47070312 9.04589844 C9.86620361 9.66895874 10.2617041 10.29201904 10.66918945 10.93395996 C13.27784228 14.98380854 16.00100576 18.95751192 18.703125 22.9453125 C19.94430528 24.78365512 21.18518489 26.62220078 22.42578125 28.4609375 C24.33169486 31.28397147 26.23777292 34.10689421 28.14404297 36.9296875 C31.83802571 42.40026811 35.52802164 47.87350064 39.21362305 53.34973145 C41.00349837 56.00519017 42.79941261 58.65649518 44.59570312 61.30761719 C45.70465734 62.95231873 46.81339228 64.59716815 47.921875 66.2421875 C48.43735901 66.99960236 48.95284302 67.75701721 49.48394775 68.53738403 C53 73.77264044 53 73.77264044 53 76 C35.51 76 18.02 76 0 76 C-0.28967473 57.32266445 -0.28967473 57.32266445 -0.40429688 49.38867188 C-0.48267574 43.96536432 -0.56218056 38.54208904 -0.64819336 33.11889648 C-0.71743485 28.74883041 -0.7817911 24.3787177 -0.84269524 20.00852776 C-0.8668549 18.33746647 -0.89280404 16.66643012 -0.92053413 14.99542427 C-0.95893946 12.66308622 -0.99110089 10.33074229 -1.02172852 7.99829102 C-1.03467453 7.3005809 -1.04762054 6.60287079 -1.06095886 5.88401794 C-1.07908008 4.25598601 -1.04513112 2.62750716 -1 1 C-0.67 0.67 -0.34 0.34 0 0 Z " fill="#FDFDFC" transform="translate(539,476)"/>
<path d="M0 0 C1.50261357 0.0009452 3.00544592 0.0345811 4.50683594 0.09521484 C5.30023376 0.10370453 6.09363159 0.11219421 6.91107178 0.12094116 C9.43918074 0.15446542 11.96407056 0.22973254 14.49121094 0.30615234 C16.20731062 0.33625368 17.92346043 0.36362921 19.63964844 0.38818359 C23.84140503 0.45425221 28.04076275 0.55775864 32.24121094 0.68115234 C31.05321411 3.87728246 29.79811324 6.56305305 27.76464844 9.29833984 C27.0179187 10.31492676 27.0179187 10.31492676 26.25610352 11.35205078 C25.71493896 12.0794043 25.17377441 12.80675781 24.61621094 13.55615234 C19.32059095 20.77533395 14.15021742 28.07006894 9.05371094 35.43115234 C-0.35364185 48.9926053 -0.35364185 48.9926053 -4.69628906 55.11865234 C-5.10322998 55.69776367 -5.5101709 56.276875 -5.92944336 56.87353516 C-6.84682127 58.16146656 -7.79858228 59.42482736 -8.75878906 60.68115234 C-9.08878906 60.68115234 -9.41878906 60.68115234 -9.75878906 60.68115234 C-10.02691406 59.58802734 -10.29503906 58.49490234 -10.57128906 57.36865234 C-11.83216087 53.32699103 -11.83216087 53.32699103 -14.75878906 50.68115234 C-17.48365628 49.88952742 -17.48365628 49.88952742 -20.44628906 49.49365234 C-21.44015625 49.33509766 -22.43402344 49.17654297 -23.45800781 49.01318359 C-24.21726562 48.90361328 -24.97652344 48.79404297 -25.75878906 48.68115234 C-25.83355469 49.23802734 -25.90832031 49.79490234 -25.98535156 50.36865234 C-27.85039537 61.19322032 -34.09828439 66.38914774 -42.77441406 72.62646484 C-53.02114648 79.68115234 -53.02114648 79.68115234 -55.75878906 79.68115234 C-54.52238992 76.37100247 -53.14220526 73.51177334 -51.16894531 70.58349609 C-50.64163818 69.7963623 -50.11433105 69.00922852 -49.57104492 68.19824219 C-48.99362549 67.34697754 -48.41620605 66.49571289 -47.82128906 65.61865234 C-47.2122876 64.71324707 -46.60328613 63.8078418 -45.97583008 62.875 C-43.90902715 59.80660248 -41.83442837 56.7435786 -39.75878906 53.68115234 C-38.98880929 52.54305196 -38.21895519 51.40486653 -37.44921875 50.26660156 C-28.92625464 37.66521025 -20.37362937 25.08403314 -11.76635742 12.54003906 C-11.29077393 11.84668457 -10.81519043 11.15333008 -10.32519531 10.43896484 C-9.92244385 9.85260254 -9.51969238 9.26624023 -9.10473633 8.66210938 C-7.60443699 6.54043845 -7.60443699 6.54043845 -6.11499023 3.48291016 C-3.75878906 0.68115234 -3.75878906 0.68115234 0 0 Z " fill="#BDA163" transform="translate(595.7587890625,376.31884765625)"/>
<path d="M0 0 C0.58825969 21.08322726 -8.99215555 41.94314311 -23.1015625 57.28515625 C-28.49269953 62.34337446 -34.39875646 65.51983419 -41.75 66.5 C-45.68776584 65.89418987 -47.27510196 64.8806065 -50 62 C-52.80164724 57.46399971 -52.79402235 52.1432619 -52 47 C-48.92075071 38.11349728 -43.52279386 31.60360724 -37 25 C-36.17048828 24.07960938 -36.17048828 24.07960938 -35.32421875 23.140625 C-27.92231458 15.13260957 -18.07052066 9.55269079 -8.8125 3.9375 C-8.16474609 3.54320801 -7.51699219 3.14891602 -6.84960938 2.74267578 C-2.24613923 0 -2.24613923 0 0 0 Z " fill="#FBFBFB" transform="translate(493,494)"/>
<path d="M0 0 C24.42 0 48.84 0 74 0 C74 7.26 74 14.52 74 22 C70.11832727 22.97041818 67.10140047 23.12068597 63.12011719 23.11352539 C62.09511612 23.11374443 62.09511612 23.11374443 61.04940796 23.1139679 C58.79853096 23.11327315 56.54773748 23.10550132 54.296875 23.09765625 C52.7331751 23.09579051 51.16947462 23.09436734 49.60577393 23.09336853 C45.49583311 23.08955562 41.38592779 23.0797358 37.27600098 23.06866455 C33.07983887 23.05842407 28.88367101 23.05386526 24.6875 23.04882812 C16.45831525 23.03811242 8.22916613 23.02052555 0 23 C0 15.41 0 7.82 0 0 Z " fill="#F3F3F3" transform="translate(225,380)"/>
<path d="M0 0 C0 24.75 0 49.5 0 75 C-10.23 75 -20.46 75 -31 75 C-31 67.31677136 -30.79574611 64.40934436 -27.3125 58.3125 C-18.20620307 41.24574492 -15.75168074 25.08873453 -15 6 C-13.06629769 4.99267601 -11.12789694 3.99436712 -9.1875 3 C-8.10855469 2.443125 -7.02960937 1.88625 -5.91796875 1.3125 C-3 0 -3 0 0 0 Z " fill="#BBA163" transform="translate(538,479)"/>
<path d="M0 0 C0.33 0 0.66 0 1 0 C1 19.14 1 38.28 1 58 C4.465 57.505 4.465 57.505 8 57 C9.32 57.33 10.64 57.66 12 58 C12 82.75 12 107.5 12 133 C8.37 133 4.74 133 1 133 C1 204.61 1 276.22 1 350 C0.67 350 0.34 350 0 350 C0 234.5 0 119 0 0 Z " fill="#F2F1EF" transform="translate(876,345)"/>
<path d="M0 0 C5.754375 -0.12375 5.754375 -0.12375 11.625 -0.25 C12.82334473 -0.28641602 14.02168945 -0.32283203 15.25634766 -0.36035156 C21.46497112 -0.42499214 25.34472448 -0.28984434 30 4 C31.53214888 7.06429776 31.22938548 9.6165642 31 13 C29.5 15.9375 29.5 15.9375 28 18 C29.2375 18.99 29.2375 18.99 30.5 20 C33.31326603 23.37591924 33.75672981 24.82234151 33.5 29.06640625 C32.65163253 32.34720232 30.5881706 33.96643739 28 36 C25.28598706 37.35700647 23.15153684 37.1123861 20.1171875 37.09765625 C19.06644043 37.09515869 18.01569336 37.09266113 16.93310547 37.09008789 C15.59393066 37.08098389 14.25475586 37.07187988 12.875 37.0625 C8.62625 37.041875 4.3775 37.02125 0 37 C0 24.79 0 12.58 0 0 Z " fill="#343D42" transform="translate(261,620)"/>
<path d="M0 0 C3.50625 -0.0825 7.0125 -0.165 10.625 -0.25 C11.71893066 -0.28641602 12.81286133 -0.32283203 13.93994141 -0.36035156 C19.80562707 -0.42706822 23.45202218 -0.10322289 28 4 C30.76055304 6.90645964 31.43128699 8.88624618 31.4375 12.875 C31.27474418 18.68281299 29.0585319 21.9414681 25 26 C28.465 31.445 28.465 31.445 32 37 C26.21366363 37.78904587 26.21366363 37.78904587 23 37 C20.34306215 34.34306215 18.56722681 31.40487707 17 28 C17 27.34 17 26.68 17 26 C14.03 26 11.06 26 8 26 C8 29.63 8 33.26 8 37 C5.36 37 2.72 37 0 37 C0 24.79 0 12.58 0 0 Z " fill="#373F44" transform="translate(695,620)"/>
<path d="M0 0 C6.587067 3.94109928 11.42098341 10.19919506 13.625 17.5 C13.13 19.975 13.13 19.975 12.625 22.5 C-1.565 22.5 -15.755 22.5 -30.375 22.5 C-30.705 19.86 -31.035 17.22 -31.375 14.5 C-32.035 14.17 -32.695 13.84 -33.375 13.5 C-30.68633717 7.51936463 -25.33888846 2.19462919 -19.51953125 -0.83984375 C-13.33483841 -2.74369273 -5.95535028 -2.60038687 0 0 Z " fill="#F1F1F0" transform="translate(477.375,455.5)"/>
<path d="M0 0 C3.50625 -0.0825 7.0125 -0.165 10.625 -0.25 C11.71893066 -0.28641602 12.81286133 -0.32283203 13.93994141 -0.36035156 C19.80562707 -0.42706822 23.45202218 -0.10322289 28 4 C30.79927794 6.93510788 31.41226807 8.90633704 31.375 12.9375 C31.20897337 17.12506061 31.02178617 19.88664455 28 23 C21.4886597 27.24287335 15.60814954 27.38522276 8 27 C8 30.3 8 33.6 8 37 C5.36 37 2.72 37 0 37 C0 24.79 0 12.58 0 0 Z " fill="#384045" transform="translate(654,620)"/>
<path d="M0 0 C2.05078125 0.03255208 4.1015625 0.06510417 6.15234375 0.09765625 C10.19339302 8.67351644 14.17198171 17.27728803 18.08984375 25.91015625 C18.49130615 26.78768555 18.89276855 27.66521484 19.30639648 28.56933594 C19.67708252 29.38950195 20.04776855 30.20966797 20.4296875 31.0546875 C20.76218506 31.7866333 21.09468262 32.5185791 21.43725586 33.27270508 C22.15234375 35.09765625 22.15234375 35.09765625 22.15234375 37.09765625 C19.51234375 37.09765625 16.87234375 37.09765625 14.15234375 37.09765625 C13.16234375 34.78765625 12.17234375 32.47765625 11.15234375 30.09765625 C5.21234375 30.09765625 -0.72765625 30.09765625 -6.84765625 30.09765625 C-7.83765625 32.40765625 -8.82765625 34.71765625 -9.84765625 37.09765625 C-12.48765625 37.09765625 -15.12765625 37.09765625 -17.84765625 37.09765625 C-15.59754755 29.79660426 -12.67976641 22.90347316 -9.54931641 15.93798828 C-8.71269016 14.07546949 -7.88325958 12.20986384 -7.0546875 10.34375 C-2.49234743 0.13173084 -2.49234743 0.13173084 0 0 Z " fill="#373F44" transform="translate(362.84765625,619.90234375)"/>
<path d="M0 0 C2.05078125 0.03255208 4.1015625 0.06510417 6.15234375 0.09765625 C18.25312046 26.06780915 18.25312046 26.06780915 22.15234375 37.09765625 C19.51234375 37.09765625 16.87234375 37.09765625 14.15234375 37.09765625 C11.15234375 31.34765625 11.15234375 31.34765625 11.15234375 29.09765625 C4.88234375 29.09765625 -1.38765625 29.09765625 -7.84765625 29.09765625 C-8.34265625 31.57265625 -8.34265625 31.57265625 -8.84765625 34.09765625 C-9.50765625 35.08765625 -10.16765625 36.07765625 -10.84765625 37.09765625 C-14.47265625 37.28515625 -14.47265625 37.28515625 -17.84765625 37.09765625 C-15.59754755 29.79660426 -12.67976641 22.90347316 -9.54931641 15.93798828 C-8.71269016 14.07546949 -7.88325958 12.20986384 -7.0546875 10.34375 C-2.49234743 0.13173084 -2.49234743 0.13173084 0 0 Z " fill="#374045" transform="translate(624.84765625,619.90234375)"/>
<path d="M0 0 C2.64 0 5.28 0 8 0 C8 4.95 8 9.9 8 15 C13.94 15 19.88 15 26 15 C26 10.05 26 5.1 26 0 C28.64 0 31.28 0 34 0 C34 12.21 34 24.42 34 37 C31.36 37 28.72 37 26 37 C26 31.72 26 26.44 26 21 C20.06 21 14.12 21 8 21 C8 26.28 8 31.56 8 37 C5.36 37 2.72 37 0 37 C0 24.79 0 12.58 0 0 Z " fill="#373F43" transform="translate(506,620)"/>
<path d="M0 0 C2.31 0 4.62 0 7 0 C7 4.95 7 9.9 7 15 C13.27 15 19.54 15 26 15 C26 10.05 26 5.1 26 0 C28.31 0 30.62 0 33 0 C33 12.21 33 24.42 33 37 C30.36 37 27.72 37 25 37 C25 32.05 25 27.1 25 22 C19.06 22 13.12 22 7 22 C7 26.95 7 31.9 7 37 C4.69 37 2.38 37 0 37 C0 24.79 0 12.58 0 0 Z " fill="#373F43" transform="translate(304,620)"/>
<path d="M0 0 C2.64 0 5.28 0 8 0 C8.33 5.28 8.66 10.56 9 16 C10.0621875 14.845 11.124375 13.69 12.21875 12.5 C13.64473866 10.9989593 15.07188326 9.49901615 16.5 8 C17.19609375 7.236875 17.8921875 6.47375 18.609375 5.6875 C23.85553887 0.24703377 23.85553887 0.24703377 27.31640625 -0.5 C29.53125 -0.5 29.53125 -0.5 33 0 C28.70214922 5.03163018 24.36574458 10.02718443 20 15 C21.57635802 20.33859916 25.11032274 24.07444325 28.625 28.25 C29.82754361 29.69102272 31.02817699 31.13364247 32.2265625 32.578125 C32.75846191 33.21137695 33.29036133 33.84462891 33.83837891 34.49707031 C35 36 35 36 35 37 C31.35538865 37.99614106 28.62622039 38.14007986 25 37 C20.55346989 33.06647729 17.28611171 27.89793077 14 23 C10.16451655 25.54335711 10.16451655 25.54335711 8.29296875 29.578125 C8.25816406 30.45984375 8.22335937 31.3415625 8.1875 32.25 C8.13980469 33.14203125 8.09210937 34.0340625 8.04296875 34.953125 C8.02169922 35.96632813 8.02169922 35.96632813 8 37 C5.36 37 2.72 37 0 37 C0 24.79 0 12.58 0 0 Z " fill="#373E43" transform="translate(570,620)"/>
<path d="M0 0 C9.24 0 18.48 0 28 0 C28 1.98 28 3.96 28 6 C21.4 6 14.8 6 8 6 C8 8.97 8 11.94 8 15 C13.94 15 19.88 15 26 15 C26 16.98 26 18.96 26 21 C20.06 21 14.12 21 8 21 C8 24.3 8 27.6 8 31 C14.93 31 21.86 31 29 31 C29 32.98 29 34.96 29 37 C19.43 37 9.86 37 0 37 C0 24.79 0 12.58 0 0 Z " fill="#384045" transform="translate(431,620)"/>
<path d="M0 0 C1.86032581 0.70552607 3.68364306 1.50739261 5.49609375 2.328125 C4.83609375 4.308125 4.17609375 6.288125 3.49609375 8.328125 C2.965 8.16441406 2.43390625 8.00070312 1.88671875 7.83203125 C-1.04267389 7.21456123 -3.76213561 7.23310575 -6.75390625 7.265625 C-8.37039063 7.27916016 -8.37039063 7.27916016 -10.01953125 7.29296875 C-11.24929688 7.31037109 -11.24929688 7.31037109 -12.50390625 7.328125 C-13.16390625 9.308125 -13.82390625 11.288125 -14.50390625 13.328125 C-13.79105469 13.50988281 -13.07820313 13.69164062 -12.34375 13.87890625 C1.47969698 17.5068634 1.47969698 17.5068634 5.43359375 21.078125 C7.01405501 24.42498414 7.00094638 26.66794342 6.49609375 30.328125 C3.74872328 34.48842885 1.42296884 37.23326387 -3.50390625 38.328125 C-11.0366121 39.18900567 -16.7212829 37.56069443 -23.50390625 34.328125 C-22.84390625 32.018125 -22.18390625 29.708125 -21.50390625 27.328125 C-16.75390625 29.203125 -16.75390625 29.203125 -14.50390625 30.328125 C-12.6301102 30.39846269 -10.75389523 30.4124272 -8.87890625 30.390625 C-7.87601562 30.38160156 -6.873125 30.37257813 -5.83984375 30.36328125 C-4.68355469 30.34587891 -4.68355469 30.34587891 -3.50390625 30.328125 C-3.17390625 28.678125 -2.84390625 27.028125 -2.50390625 25.328125 C-3.52871094 25.03679688 -4.55351562 24.74546875 -5.609375 24.4453125 C-6.97037688 24.03231883 -8.33103646 23.61819597 -9.69140625 23.203125 C-10.36494141 23.01492188 -11.03847656 22.82671875 -11.73242188 22.6328125 C-16.99509945 20.98983023 -19.4228229 18.92344096 -22.50390625 14.328125 C-23.49019292 11.4741891 -23.43024132 9.2043382 -22.50390625 6.328125 C-16.50579962 -0.86649513 -8.97702686 -2.4088122 0 0 Z " fill="#3B4448" transform="translate(490.50390625,619.671875)"/>
<path d="M0 0 C8.91 0 17.82 0 27 0 C27 1.98 27 3.96 27 6 C20.4 6 13.8 6 7 6 C7 8.97 7 11.94 7 15 C12.94 15 18.88 15 25 15 C25 16.98 25 18.96 25 21 C19.06 21 13.12 21 7 21 C7 24.3 7 27.6 7 31 C13.93 31 20.86 31 28 31 C28 32.98 28 34.96 28 37 C18.76 37 9.52 37 0 37 C0 24.79 0 12.58 0 0 Z " fill="#333C41" transform="translate(737,620)"/>
<path d="M0 0 C2.64 0 5.28 0 8 0 C19 21.31958763 19 21.31958763 19 26 C19.66 26 20.32 26 21 26 C21.13535156 25.46375 21.27070313 24.9275 21.41015625 24.375 C23.74353132 15.87983805 27.37546896 8.00375896 31 0 C33.64 0 36.28 0 39 0 C36.48998474 8.09369833 33.18401726 15.80021546 29.8125 23.5625 C29.24770722 24.87029608 28.68325152 26.17823778 28.11914062 27.48632812 C26.74997252 30.65923901 25.37626474 33.83015975 24 37 C21.36 37 18.72 37 16 37 C11.83194664 29.12136256 8.19006676 21.04025488 4.625 12.875 C4.17205566 11.8430249 3.71911133 10.8110498 3.25244141 9.74780273 C2.62088135 8.29096069 2.62088135 8.29096069 1.9765625 6.8046875 C1.40542725 5.48960205 1.40542725 5.48960205 0.82275391 4.14794922 C0 2 0 2 0 0 Z " fill="#384044" transform="translate(386,620)"/>
<path d="M0 0 C48.18 0 96.36 0 146 0 C146 0.99 146 1.98 146 3 C97.82 3 49.64 3 0 3 C0 2.01 0 1.02 0 0 Z " fill="#C7AC74" transform="translate(260,684)"/>
<path d="M0 0 C48.18 0 96.36 0 146 0 C146 0.99 146 1.98 146 3 C97.82 3 49.64 3 0 3 C0 2.01 0 1.02 0 0 Z " fill="#C6AB73" transform="translate(619,684)"/>
<path d="M0 0 C0.99 0 1.98 0 3 0 C3 5.28 3 10.56 3 16 C9.6 16 16.2 16 23 16 C23 16.99 23 17.98 23 19 C21.730447 19.64834654 20.45930294 20.29357815 19.1875 20.9375 C18.47980469 21.29714844 17.77210938 21.65679688 17.04296875 22.02734375 C12.87937736 24.00962722 9.58805591 24.39552206 5 24 C2.08912289 22.25347373 0.46563394 20.75388353 -1.3125 17.875 C-2.7404396 11.90361624 -2.94833265 5.52812371 0 0 Z " fill="#EAEBEB" transform="translate(443,536)"/>
<path d="M0 0 C9.86360567 -0.35651587 9.86360567 -0.35651587 14.1875 1 C16.60992885 3.67302494 16.55975367 5.54993659 16.56640625 9.0625 C16 11 16 11 14.35546875 12.73828125 C11.31883835 14.36486768 9.17469407 14.29917481 5.75 14.1875 C2.90375 14.0946875 2.90375 14.0946875 0 14 C0 9.38 0 4.76 0 0 Z " fill="#F0F0F0" transform="translate(702,626)"/>
<path d="M0 0 C-2.64 6.27 -5.28 12.54 -8 19 C-8.66 19 -9.32 19 -10 19 C-11.33934716 16.04435292 -12.67044247 13.0850622 -14 10.125 C-14.3815625 9.28324219 -14.763125 8.44148437 -15.15625 7.57421875 C-15.5171875 6.76855469 -15.878125 5.96289062 -16.25 5.1328125 C-16.58515625 4.38918457 -16.9203125 3.64555664 -17.265625 2.87939453 C-18 1 -18 1 -18 -1 C-15.56304285 -1.22181406 -13.126474 -1.42791119 -10.6875 -1.625 C-9.99720703 -1.68945312 -9.30691406 -1.75390625 -8.59570312 -1.8203125 C-4.7440028 -2.11802847 -3.31145584 -2.20763723 0 0 Z " fill="#EFEFEF" transform="translate(415,627)"/>
<path d="M0 0 C1.5675 -0.04125 3.135 -0.0825 4.75 -0.125 C5.63171875 -0.14820313 6.5134375 -0.17140625 7.421875 -0.1953125 C10.14906426 0.01129275 11.71315408 0.52694159 14 2 C15.54163175 5.0832635 15.29747535 7.60878099 15 11 C12.7521495 13.31660828 11.42993683 13.95496472 8.203125 14.29296875 C5.46875 14.1953125 2.734375 14.09765625 0 14 C0 9.38 0 4.76 0 0 Z " fill="#F8F7F8" transform="translate(662,626)"/>
<path d="M0 0 C1.5675 -0.061875 3.135 -0.12375 4.75 -0.1875 C6.07257813 -0.23970703 6.07257813 -0.23970703 7.421875 -0.29296875 C10.50077164 0.05690587 11.81453679 0.82967857 14 3 C14.31900332 6.12623255 14.41441874 8.17116253 13 11 C12.34 11 11.68 11 11 11 C11.7425 12.175625 11.7425 12.175625 12.5 13.375 C14 16 14 16 14 18 C10.83884224 16.63016497 10.0072908 16.0109362 8 13 C5.43717258 12.27034634 5.43717258 12.27034634 3 12 C3 13.98 3 15.96 3 18 C2.01 18 1.02 18 0 18 C0 12.06 0 6.12 0 0 Z " fill="#CEB37A" transform="translate(467,676)"/>
<path d="M0 0 C2.4377963 -0.05397335 4.87439685 -0.09365616 7.3125 -0.125 C8.00279297 -0.14175781 8.69308594 -0.15851562 9.40429688 -0.17578125 C13.17135396 -0.21217794 14.78431704 -0.14378864 18 2 C18.375 5 18.375 5 18 8 C14.31912647 10.45391569 11.55644412 10.22802759 7.3125 10.125 C6.2596582 10.11146484 6.2596582 10.11146484 5.18554688 10.09765625 C3.45688475 10.07413704 1.72839855 10.03826713 0 10 C0 6.7 0 3.4 0 0 Z " fill="#E4E5E5" transform="translate(268,641)"/>
<path d="M0 0 C5.28 0 10.56 0 16 0 C16.33 0.66 16.66 1.32 17 2 C16.25556641 2.58394531 16.25556641 2.58394531 15.49609375 3.1796875 C10.55337439 7.25016227 6.96424546 11.5194133 3.4453125 16.86328125 C2 19 2 19 0 21 C0 14.07 0 7.14 0 0 Z " fill="#F0EFEE" transform="translate(151,307)"/>
<path d="M0 0 C9 0 9 0 12.0625 1.6875 C14 4 14 4 14.5 6.5625 C13.90934889 9.44192417 13.30213464 10.22363004 11 12 C8.73828125 12.29296875 8.73828125 12.29296875 6.3125 12.1875 C5.10013672 12.14689453 5.10013672 12.14689453 3.86328125 12.10546875 C3.24839844 12.07066406 2.63351562 12.03585937 2 12 C2 13.98 2 15.96 2 18 C1.34 18 0.68 18 0 18 C0 12.06 0 6.12 0 0 Z " fill="#C6AA68" transform="translate(418,676)"/>
<path d="M0 0 C2.10388569 -0.05402274 4.20816714 -0.09280256 6.3125 -0.125 C8.07013672 -0.15980469 8.07013672 -0.15980469 9.86328125 -0.1953125 C13 0 13 0 16 2 C16.3125 4.5 16.3125 4.5 16 7 C14 9 14 9 10.7421875 9.1953125 C9.46601563 9.17210937 8.18984375 9.14890625 6.875 9.125 C4.95300781 9.09792969 4.95300781 9.09792969 2.9921875 9.0703125 C1.51105469 9.03550781 1.51105469 9.03550781 0 9 C0 6.03 0 3.06 0 0 Z " fill="#E6E7E7" transform="translate(268,626)"/>
<path d="M0 0 C0 2.97 0 5.94 0 9 C-5.61 9 -11.22 9 -17 9 C-17 6.36 -17 3.72 -17 1 C-14.3541898 0.832959 -11.70835369 0.66634934 -9.0625 0.5 C-8.30775391 0.45230469 -7.55300781 0.40460937 -6.77539062 0.35546875 C-1.11328125 0 -1.11328125 0 0 0 Z " fill="#FAFBFA" transform="translate(329,625)"/>
<path d="M0 0 C5.28 0 10.56 0 16 0 C16 2.64 16 5.28 16 8 C10.72 8 5.44 8 0 8 C0 5.36 0 2.72 0 0 Z " fill="#FCFCFC" transform="translate(515,626)"/>
<path d="M0 0 C5.50619612 3.26293103 5.50619612 3.26293103 6.55078125 6.9375 C6.81273098 10.88919871 6.21876473 12.68179675 3.9375 16 C0.23727467 18.51930235 -1.6031656 18.7066341 -6 18 C-8.95473023 16.45840162 -10.52908229 15.31912036 -11.66796875 12.12890625 C-12.41605771 8.21069776 -12.33289313 6.53951646 -10.1875 3.0625 C-6.78460129 -0.14594735 -4.65082246 -0.53663336 0 0 Z M-9 5 C-9.46913089 9.37855495 -9.46943529 11.29584707 -7 15 C-1.77212582 15.57014462 -1.77212582 15.57014462 3 13.875 C4.504106 11.05480125 4.44912849 9.14389944 4 6 C2.01241034 3.20265158 0.89834723 2.15721076 -2.5 1.5625 C-5.59443084 2.1040254 -6.92308202 2.61539047 -9 5 Z " fill="#CCB47E" transform="translate(602,676)"/>
<path d="M0 0 C3.18845573 0.27174339 4.2010566 0.82153773 7 2.6875 C9.77041398 6.84312097 9.70476018 8.75417872 9 13.6875 C7.12984906 16.11869623 5.71861655 17.32819173 3 18.6875 C-0.87214182 19.11773798 -2.52496371 19.00419086 -5.8125 16.8125 C-8.35330753 14.34428697 -8.8995948 13.4238048 -9.375 9.9375 C-8.72703849 4.32183358 -5.81632916 0.38555212 0 0 Z M-4.875 3.75 C-6.66830867 6.83847604 -6.42841969 9.19893969 -6 12.6875 C-4.02547983 15.5395847 -2.90524375 16.50645125 0.5 17.1875 C3.87013879 16.51347224 5.01677007 15.4787125 7 12.6875 C7.61195145 9.0157913 7.48706506 7.39936432 5.375 4.3125 C1.89352736 1.93043977 -1.14534223 1.63652727 -4.875 3.75 Z " fill="#CAAF74" transform="translate(539,675.3125)"/>
<path d="M0 0 C3.97245401 0.70936679 5.67231707 1.79731707 8.5 4.625 C9.8899408 7.4048816 9.68488204 9.5436326 9.5 12.625 C8.64986429 15.17540714 7.96852322 16.27794576 5.8125 17.875 C2.43066036 18.97181286 0.0356633 19.12123345 -3.5 18.625 C-6.69431946 15.77050176 -8.24737815 13.83758487 -9.125 9.625 C-7.98954107 4.17479716 -5.55693876 0.99231049 0 0 Z M-4.3125 3.625 C-6.21378588 6.8271657 -6.16933608 10.00757692 -5.5 13.625 C-4.01869332 15.86108998 -4.01869332 15.86108998 -1.5 16.625 C1.9803645 16.55397215 3.79485909 16.23915498 6.4375 13.9375 C7.91325591 10.72556066 7.56444212 8.96025198 6.5 5.625 C4.34052243 3.31127403 3.06506709 2.70769275 -0.0625 2.25 C-2.48111011 2.47890222 -2.48111011 2.47890222 -4.3125 3.625 Z " fill="#C7AB71" transform="translate(448.5,675.375)"/>
<path d="M0 0 C3.02952396 1.51476198 3.37093771 3.85368016 4.625 6.9375 C5.07101562 8.01902344 5.51703125 9.10054687 5.9765625 10.21484375 C7 13 7 13 7 15 C3.04 15 -0.92 15 -5 15 C-4.23239022 11.16195111 -3.40495674 8.23779856 -1.9375 4.6875 C-1.39416016 3.36298828 -1.39416016 3.36298828 -0.83984375 2.01171875 C-0.56269531 1.34785156 -0.28554688 0.68398438 0 0 Z " fill="#DCDEDE" transform="translate(626,628)"/>
<path d="M0 0 C0.66 0 1.32 0 2 0 C2.83739781 2.1234016 3.66980283 4.2487728 4.5 6.375 C4.9640625 7.55835938 5.428125 8.74171875 5.90625 9.9609375 C7 13 7 13 7 15 C3.04 15 -0.92 15 -5 15 C-4.23239022 11.16195111 -3.40495674 8.23779856 -1.9375 4.6875 C-1.39416016 3.36298828 -1.39416016 3.36298828 -0.83984375 2.01171875 C-0.56269531 1.34785156 -0.28554688 0.68398438 0 0 Z " fill="#EAEBEB" transform="translate(364,628)"/>
<path d="M0 0 C3.96 0 7.92 0 12 0 C12 0.66 12 1.32 12 2 C8.7 2 5.4 2 2 2 C2 3.98 2 5.96 2 8 C4.97 8 7.94 8 11 8 C11 8.99 11 9.98 11 11 C8.03 11 5.06 11 2 11 C2 13.31 2 15.62 2 18 C1.34 18 0.68 18 0 18 C0 12.06 0 6.12 0 0 Z " fill="#CAB176" transform="translate(511,676)"/>
<path d="M0 0 C3.3 0 6.6 0 10 0 C10 0.33 10 0.66 10 1 C8.35 1 6.7 1 5 1 C5 4.96 5 8.92 5 13 C6.98 13 8.96 13 11 13 C11 13.33 11 13.66 11 14 C7.37 14 3.74 14 0 14 C0 9.38 0 4.76 0 0 Z " fill="#EDEDEE" transform="translate(662,626)"/>
<path d="M0 0 C4.62 0 9.24 0 14 0 C14 0.66 14 1.32 14 2 C12.35 2 10.7 2 9 2 C9 7.28 9 12.56 9 18 C8.01 18 7.02 18 6 18 C6 12.72 6 7.44 6 2 C4.02 2 2.04 2 0 2 C0 1.34 0 0.68 0 0 Z " fill="#CCB57D" transform="translate(488,676)"/>
<path d="M0 0 C6.6 0 13.2 0 20 0 C20 0.33 20 0.66 20 1 C15.71 1 11.42 1 7 1 C7 3.64 7 6.28 7 9 C4.69 9 2.38 9 0 9 C0 6.03 0 3.06 0 0 Z " fill="#E5E5E6" transform="translate(439,626)"/>
<path d="M0 0 C3.375 -0.125 3.375 -0.125 7 0 C9 2 9 2 9.1875 4.5625 C9 7 9 7 8 8 C5.32941149 8.14115161 2.67567762 8.04247107 0 8 C0 5.36 0 2.72 0 0 Z " fill="#F0EFEB" transform="translate(420,678)"/>
<path d="M0 0 C5.43806647 -0.36253776 5.43806647 -0.36253776 7.9375 1.25 C9 3 9 3 8.75 5.125 C8 7 8 7 7 8 C4.66702567 8.04092937 2.33294775 8.04241723 0 8 C0 5.36 0 2.72 0 0 Z " fill="#F8F6EF" transform="translate(470,678)"/>
<path d="M0 0 C3.375 2 3.375 2 6 5 C6.50687865 7.85647239 6.29795219 10.07013677 6 13 C5.01 13.495 5.01 13.495 4 14 C3.896875 12.741875 3.79375 11.48375 3.6875 10.1875 C3.35894495 7.71676602 3.07639415 6.14005593 1.875 3.9375 C-1.25895675 2.37052163 -3.70022958 3.17505739 -7 4 C-8.92283085 5.41591827 -8.92283085 5.41591827 -10 7 C-10 3 -10 3 -8.375 1.25 C-5.22742032 -0.40662088 -3.52173339 -0.56347734 0 0 Z " fill="#C8B075" transform="translate(602,676)"/>
<path d="M0 0 C0.66 0 1.32 0 2 0 C2 5.28 2 10.56 2 16 C5.3 16 8.6 16 12 16 C12 16.66 12 17.32 12 18 C8.04 18 4.08 18 0 18 C0 12.06 0 6.12 0 0 Z " fill="#CDB57B" transform="translate(558,676)"/>
<path d="M0 0 C0.99 0 1.98 0 3 0 C3 5.94 3 11.88 3 18 C2.01 18 1.02 18 0 18 C0 12.06 0 6.12 0 0 Z " fill="#CEBA87" transform="translate(578,676)"/>
<path d="M0 0 C3.33194908 0.18442523 4.22280176 0.62973871 7.125 2.625 C9.56522082 6.20907432 9.54168469 8.31231621 9.125 12.5625 C8.465 12.5625 7.805 12.5625 7.125 12.5625 C7.00382813 11.99660156 6.88265625 11.43070313 6.7578125 10.84765625 C6.59023438 10.11417969 6.42265625 9.38070312 6.25 8.625 C6.08757813 7.89410156 5.92515625 7.16320312 5.7578125 6.41015625 C5.29538477 4.35549706 5.29538477 4.35549706 3.125 3.5625 C-0.40518797 3.40901357 -3.49027952 3.52104754 -6.875 4.5625 C-5.04979532 0.91209065 -4.14068422 0.60106706 0 0 Z " fill="#C7AA6B" transform="translate(538.875,675.4375)"/>
<path d="M0 0 C3.375 0.5625 3.375 0.5625 5.3125 2.0625 C5.663125 2.5575 6.01375 3.0525 6.375 3.5625 C4.375 4.5625 4.375 4.5625 0.875 4 C-0.28 3.855625 -1.435 3.71125 -2.625 3.5625 C-5.1904594 6.1279594 -5.16546087 8.03936668 -5.625 11.5625 C-6.615 11.8925 -7.605 12.2225 -8.625 12.5625 C-9.11375646 8.45694576 -8.75382814 6.77330968 -6.5625 3.1875 C-3.625 0.5625 -3.625 0.5625 0 0 Z " fill="#CCB37A" transform="translate(448.625,675.4375)"/>
<path d="M0 0 C0.33 0 0.66 0 1 0 C1.33 2.64 1.66 5.28 2 8 C4.31 8.33 6.62 8.66 9 9 C9 9.33 9 9.66 9 10 C6.69 10 4.38 10 2 10 C2 11.98 2 13.96 2 16 C1.34 16 0.68 16 0 16 C0 10.72 0 5.44 0 0 Z " fill="#BFA360" transform="translate(418,678)"/>
<path d="M0 0 C0.66 0 1.32 0 2 0 C2.36448598 4.4953271 2.36448598 4.4953271 0.78125 6.6875 C-1 8 -1 8 -3.26171875 8.07421875 C-4.46248047 7.88279297 -4.46248047 7.88279297 -5.6875 7.6875 C-6.49574219 7.56761719 -7.30398438 7.44773437 -8.13671875 7.32421875 C-8.75160156 7.21722656 -9.36648438 7.11023438 -10 7 C-10 6.67 -10 6.34 -10 6 C-7.36 5.67 -4.72 5.34 -2 5 C-1.34 3.35 -0.68 1.7 0 0 Z " fill="#CCB580" transform="translate(430,680)"/>
<path d="M0 0 C0.66 0.99 1.32 1.98 2 3 C1.34 3 0.68 3 0 3 C0.495 3.78375 0.99 4.5675 1.5 5.375 C3 8 3 8 3 10 C0.00675737 8.9024777 -0.84610901 8.32317108 -2.25 5.375 C-2.4975 4.59125 -2.745 3.8075 -3 3 C-2.01 2.01 -1.02 1.02 0 0 Z " fill="#CAB077" transform="translate(478,684)"/>
<path d="M0 0 C0.33 0 0.66 0 1 0 C1 3.3 1 6.6 1 10 C0.01 10 -0.98 10 -2 10 C-2.1953125 3.9453125 -2.1953125 3.9453125 -2 2 C-1.34 1.34 -0.68 0.68 0 0 Z " fill="#F0ECE3" transform="translate(445,679)"/>
<path d="M0 0 C0.66 0.99 1.32 1.98 2 3 C-0.75924185 4.80411967 -1.88972103 5.0127245 -5.25 4.625 C-6.1575 4.41875 -7.065 4.2125 -8 4 C-8 3.67 -8 3.34 -8 3 C-6.865625 2.690625 -5.73125 2.38125 -4.5625 2.0625 C-1.21224901 1.37075469 -1.21224901 1.37075469 0 0 Z " fill="#D1BD91" transform="translate(605,688)"/>
<path d="M0 0 C0.33 0 0.66 0 1 0 C1 2.64 1 5.28 1 8 C0.01 8.33 -0.98 8.66 -2 9 C-2.25 3.375 -2.25 3.375 0 0 Z " fill="#CEB688" transform="translate(442,679)"/>
</svg>
